Bethany-Heavy.ufo
<glyph name="exclam" format="1">
  <advance width="496"></advance>
  <unicode hex="0021"></unicode>
  <outline>
    <contour>
      <point x="283" y="272" type="curve" smooth="yes"></point>
      <point x="204" y="272" type="line" smooth="yes"></point>
      <point x="186" y="272"></point>
      <point x="169" y="286"></point>
      <point x="167" y="305" type="curve"></point>
      <point x="104" y="657" type="line"></point>
      <point x="102" y="674"></point>
      <point x="100" y="706"></point>
      <point x="100" y="723" type="curve" smooth="yes"></point>
      <point x="100" y="763" type="line" smooth="yes"></point>
      <point x="100" y="781"></point>
      <point x="115" y="796"></point>
      <point x="133" y="796" type="curve" smooth="yes"></point>
      <point x="354" y="796" type="line" smooth="yes"></point>
      <point x="372" y="796"></point>
      <point x="387" y="781"></point>
      <point x="387" y="763" type="curve" smooth="yes"></point>
      <point x="387" y="723" type="line" smooth="yes"></point>
      <point x="387" y="706"></point>
      <point x="385" y="674"></point>
      <point x="383" y="657" type="curve"></point>
      <point x="320" y="305" type="line"></point>
      <point x="318" y="286"></point>
      <point x="301" y="272"></point>
    </contour>
    <contour>
      <point x="383" y="104" type="curve" smooth="yes"></point>
      <point x="383" y="30"></point>
      <point x="327" y="-16"></point>
      <point x="243" y="-16" type="curve" smooth="yes"></point>
      <point x="163" y="-16"></point>
      <point x="107" y="30"></point>
      <point x="107" y="104" type="curve" smooth="yes"></point>
      <point x="107" y="180"></point>
      <point x="163" y="226"></point>
      <point x="243" y="226" type="curve" smooth="yes"></point>
      <point x="323" y="226"></point>
      <point x="383" y="180"></point>
    </contour>
  </outline>
</glyph>
<glyph name="quotedbl" format="1">
  <advance width="688"></advance>
  <unicode hex="0022"></unicode>
  <outline>
    <contour>
      <point x="602" y="461" type="curve" smooth="yes"></point>
      <point x="522" y="461" type="line" smooth="yes"></point>
      <point x="503" y="461"></point>
      <point x="487" y="475"></point>
      <point x="485" y="494" type="curve" smooth="yes"></point>
      <point x="454" y="760" type="line" smooth="yes"></point>
      <point x="452" y="777"></point>
      <point x="465" y="793"></point>
      <point x="483" y="793" type="curve" smooth="yes"></point>
      <point x="651" y="793" type="line" smooth="yes"></point>
      <point x="668" y="793"></point>
      <point x="682" y="777"></point>
      <point x="679" y="760" type="curve" smooth="yes"></point>
      <point x="640" y="494" type="line" smooth="yes"></point>
      <point x="637" y="475"></point>
      <point x="621" y="461"></point>
    </contour>
    <contour>
      <point x="316" y="461" type="curve" smooth="yes"></point>
      <point x="235" y="461" type="line" smooth="yes"></point>
      <point x="216" y="461"></point>
      <point x="200" y="475"></point>
      <point x="198" y="494" type="curve" smooth="yes"></point>
      <point x="167" y="760" type="line" smooth="yes"></point>
      <point x="165" y="777"></point>
      <point x="178" y="793"></point>
      <point x="196" y="793" type="curve" smooth="yes"></point>
      <point x="364" y="793" type="line" smooth="yes"></point>
      <point x="381" y="793"></point>
      <point x="394" y="777"></point>
      <point x="392" y="760" type="curve" smooth="yes"></point>
      <point x="354" y="494" type="line" smooth="yes"></point>
      <point x="351" y="475"></point>
      <point x="335" y="461"></point>
    </contour>
  </outline>
</glyph>
<glyph name="numbersign" format="1">
  <advance width="688"></advance>
  <unicode hex="0023"></unicode>
  <outline>
    <contour>
      <point x="329" y="462" type="line"></point>
      <point x="289" y="286" type="line"></point>
      <point x="368" y="286" type="line"></point>
      <point x="407" y="462" type="line"></point>
    </contour>
    <contour>
      <point x="190" y="0" type="curve" smooth="yes"></point>
      <point x="103" y="0" type="line" smooth="yes"></point>
      <point x="88" y="0"></point>
      <point x="76" y="13"></point>
      <point x="76" y="27" type="curve" smooth="yes"></point>
      <point x="76" y="29"></point>
      <point x="77" y="31"></point>
      <point x="77" y="33" type="curve" smooth="yes"></point>
      <point x="101" y="140" type="line"></point>
      <point x="68" y="140" type="line" smooth="yes"></point>
      <point x="53" y="140"></point>
      <point x="41" y="152"></point>
      <point x="41" y="167" type="curve" smooth="yes"></point>
      <point x="41" y="169"></point>
      <point x="42" y="171"></point>
      <point x="42" y="173" type="curve" smooth="yes"></point>
      <point x="58" y="253" type="line" smooth="yes"></point>
      <point x="62" y="272"></point>
      <point x="79" y="286"></point>
      <point x="98" y="286" type="curve" smooth="yes"></point>
      <point x="134" y="286" type="line"></point>
      <point x="173" y="462" type="line"></point>
      <point x="139" y="462" type="line" smooth="yes"></point>
      <point x="124" y="462"></point>
      <point x="112" y="475"></point>
      <point x="112" y="489" type="curve" smooth="yes"></point>
      <point x="112" y="491"></point>
      <point x="113" y="493"></point>
      <point x="113" y="495" type="curve" smooth="yes"></point>
      <point x="130" y="575" type="line" smooth="yes"></point>
      <point x="134" y="594"></point>
      <point x="151" y="608"></point>
      <point x="170" y="608" type="curve" smooth="yes"></point>
      <point x="206" y="608" type="line"></point>
      <point x="240" y="759" type="line" smooth="yes"></point>
      <point x="244" y="778"></point>
      <point x="261" y="792"></point>
      <point x="280" y="792" type="curve" smooth="yes"></point>
      <point x="372" y="792" type="line" smooth="yes"></point>
      <point x="387" y="792"></point>
      <point x="398" y="780"></point>
      <point x="398" y="766" type="curve" smooth="yes"></point>
      <point x="398" y="764"></point>
      <point x="397" y="762"></point>
      <point x="397" y="760" type="curve" smooth="yes"></point>
      <point x="362" y="608" type="line"></point>
      <point x="439" y="608" type="line"></point>
      <point x="473" y="759" type="line" smooth="yes"></point>
      <point x="477" y="778"></point>
      <point x="494" y="792"></point>
      <point x="513" y="792" type="curve" smooth="yes"></point>
      <point x="606" y="792" type="line" smooth="yes"></point>
      <point x="621" y="792"></point>
      <point x="632" y="780"></point>
      <point x="632" y="766" type="curve" smooth="yes"></point>
      <point x="632" y="764"></point>
      <point x="631" y="762"></point>
      <point x="631" y="760" type="curve" smooth="yes"></point>
      <point x="596" y="608" type="line"></point>
      <point x="632" y="608" type="line" smooth="yes"></point>
      <point x="647" y="608"></point>
      <point x="659" y="595"></point>
      <point x="659" y="581" type="curve" smooth="yes"></point>
      <point x="659" y="579"></point>
      <point x="658" y="577"></point>
      <point x="658" y="575" type="curve" smooth="yes"></point>
      <point x="641" y="495" type="line" smooth="yes"></point>
      <point x="637" y="476"></point>
      <point x="620" y="462"></point>
      <point x="601" y="462" type="curve" smooth="yes"></point>
      <point x="563" y="462" type="line"></point>
      <point x="522" y="286" type="line"></point>
      <point x="560" y="286" type="line" smooth="yes"></point>
      <point x="575" y="286"></point>
      <point x="587" y="273"></point>
      <point x="587" y="259" type="curve" smooth="yes"></point>
      <point x="587" y="257"></point>
      <point x="586" y="255"></point>
      <point x="586" y="253" type="curve" smooth="yes"></point>
      <point x="569" y="173" type="line" smooth="yes"></point>
      <point x="565" y="154"></point>
      <point x="548" y="140"></point>
      <point x="529" y="140" type="curve" smooth="yes"></point>
      <point x="489" y="140" type="line"></point>
      <point x="464" y="32" type="line" smooth="yes"></point>
      <point x="460" y="13"></point>
      <point x="443" y="0"></point>
      <point x="424" y="0" type="curve" smooth="yes"></point>
      <point x="337" y="0" type="line" smooth="yes"></point>
      <point x="322" y="0"></point>
      <point x="310" y="13"></point>
      <point x="310" y="27" type="curve" smooth="yes"></point>
      <point x="310" y="29"></point>
      <point x="311" y="31"></point>
      <point x="311" y="33" type="curve" smooth="yes"></point>
      <point x="335" y="140" type="line"></point>
      <point x="255" y="140" type="line"></point>
      <point x="230" y="32" type="line" smooth="yes"></point>
      <point x="226" y="13"></point>
      <point x="209" y="0"></point>
    </contour>
  </outline>
</glyph>
<glyph name="dollar" format="1">
  <advance width="768"></advance>
  <unicode hex="0024"></unicode>
  <outline>
    <contour>
      <point x="384" y="658" type="line"></point>
      <point x="376" y="658" type="line" smooth="yes"></point>
      <point x="330" y="658"></point>
      <point x="289" y="634"></point>
      <point x="289" y="592" type="curve" smooth="yes"></point>
      <point x="289" y="548"></point>
      <point x="334" y="533"></point>
      <point x="384" y="518" type="curve"></point>
    </contour>
    <contour>
      <point x="464" y="174" type="line"></point>
      <point x="465" y="181"></point>
      <point x="466" y="188"></point>
      <point x="466" y="195" type="curve" smooth="yes"></point>
      <point x="466" y="201"></point>
      <point x="465" y="206"></point>
      <point x="464" y="211" type="curve"></point>
    </contour>
    <contour>
      <point x="431" y="-135" type="curve" smooth="yes"></point>
      <point x="417" y="-135" type="line" smooth="yes"></point>
      <point x="399" y="-135"></point>
      <point x="384" y="-120"></point>
      <point x="384" y="-102" type="curve" smooth="yes"></point>
      <point x="384" y="-6" type="line"></point>
      <point x="324" y="8"></point>
      <point x="277" y="40"></point>
      <point x="248" y="70" type="curve"></point>
      <point x="239" y="32" type="line" smooth="yes"></point>
      <point x="234" y="13"></point>
      <point x="229" y="0"></point>
      <point x="210" y="0" type="curve" smooth="yes"></point>
      <point x="103" y="0" type="line" smooth="yes"></point>
      <point x="85" y="0"></point>
      <point x="70" y="15"></point>
      <point x="70" y="33" type="curve" smooth="yes"></point>
      <point x="70" y="238" type="line" smooth="yes"></point>
      <point x="70" y="256"></point>
      <point x="85" y="271"></point>
      <point x="103" y="271" type="curve" smooth="yes"></point>
      <point x="192" y="271" type="line" smooth="yes"></point>
      <point x="216" y="271"></point>
      <point x="230" y="261"></point>
      <point x="239" y="239" type="curve" smooth="yes"></point>
      <point x="261" y="185"></point>
      <point x="324" y="139"></point>
      <point x="371" y="130" type="curve" smooth="yes"></point>
      <point x="376" y="129"></point>
      <point x="380" y="128"></point>
      <point x="384" y="128" type="curve"></point>
      <point x="384" y="270" type="line"></point>
      <point x="380" y="271"></point>
      <point x="377" y="273"></point>
      <point x="373" y="274" type="curve" smooth="yes"></point>
      <point x="189" y="337"></point>
      <point x="50" y="359"></point>
      <point x="50" y="553" type="curve" smooth="yes"></point>
      <point x="50" y="716"></point>
      <point x="194" y="793"></point>
      <point x="325" y="793" type="curve" smooth="yes"></point>
      <point x="344" y="793"></point>
      <point x="364" y="791"></point>
      <point x="384" y="787" type="curve"></point>
      <point x="384" y="895" type="line" smooth="yes"></point>
      <point x="384" y="913"></point>
      <point x="399" y="928"></point>
      <point x="417" y="928" type="curve" smooth="yes"></point>
      <point x="431" y="928" type="line" smooth="yes"></point>
      <point x="449" y="928"></point>
      <point x="464" y="913"></point>
      <point x="464" y="895" type="curve" smooth="yes"></point>
      <point x="464" y="760" type="line"></point>
      <point x="488" y="749"></point>
      <point x="509" y="735"></point>
      <point x="523" y="720" type="curve"></point>
      <point x="524" y="722"></point>
      <point x="524" y="735"></point>
      <point x="526" y="744" type="curve"></point>
      <point x="531" y="758"></point>
      <point x="533" y="778"></point>
      <point x="548" y="778" type="curve" smooth="yes"></point>
      <point x="649" y="778" type="line" smooth="yes"></point>
      <point x="667" y="778"></point>
      <point x="682" y="763"></point>
      <point x="682" y="745" type="curve" smooth="yes"></point>
      <point x="682" y="562" type="line" smooth="yes"></point>
      <point x="682" y="544"></point>
      <point x="667" y="529"></point>
      <point x="649" y="529" type="curve" smooth="yes"></point>
      <point x="570" y="529" type="line" smooth="yes"></point>
      <point x="545" y="529"></point>
      <point x="531" y="539"></point>
      <point x="522" y="561" type="curve" smooth="yes"></point>
      <point x="511" y="587"></point>
      <point x="489" y="609"></point>
      <point x="464" y="626" type="curve"></point>
      <point x="464" y="494" type="line"></point>
      <point x="612" y="449"></point>
      <point x="723" y="406"></point>
      <point x="723" y="245" type="curve" smooth="yes"></point>
      <point x="723" y="103"></point>
      <point x="622" y="-8"></point>
      <point x="464" y="-14" type="curve"></point>
      <point x="464" y="-102" type="line" smooth="yes"></point>
      <point x="464" y="-120"></point>
      <point x="449" y="-135"></point>
    </contour>
  </outline>
</glyph>
<glyph name="percent" format="1">
  <advance width="1184"></advance>
  <unicode hex="0025"></unicode>
  <outline>
    <contour>
      <point x="592" y="0" type="curve" smooth="yes"></point>
      <point x="412" y="0" type="line" smooth="yes"></point>
      <point x="397" y="0"></point>
      <point x="385" y="13"></point>
      <point x="385" y="27" type="curve" smooth="yes"></point>
      <point x="385" y="29"></point>
      <point x="386" y="31"></point>
      <point x="386" y="33" type="curve" smooth="yes"></point>
      <point x="539" y="759" type="line" smooth="yes"></point>
      <point x="543" y="778"></point>
      <point x="560" y="792"></point>
      <point x="579" y="792" type="curve" smooth="yes"></point>
      <point x="759" y="792" type="line" smooth="yes"></point>
      <point x="774" y="792"></point>
      <point x="786" y="779"></point>
      <point x="786" y="765" type="curve" smooth="yes"></point>
      <point x="786" y="763"></point>
      <point x="785" y="761"></point>
      <point x="785" y="759" type="curve" smooth="yes"></point>
      <point x="632" y="33" type="line" smooth="yes"></point>
      <point x="628" y="14"></point>
      <point x="611" y="0"></point>
    </contour>
    <contour>
      <point x="808" y="62" type="curve" smooth="yes"></point>
      <point x="764" y="109"></point>
      <point x="742" y="174"></point>
      <point x="742" y="254" type="curve" smooth="yes"></point>
      <point x="742" y="305"></point>
      <point x="751" y="353"></point>
      <point x="770" y="395" type="curve" smooth="yes"></point>
      <point x="789" y="437"></point>
      <point x="818" y="472"></point>
      <point x="855" y="497" type="curve" smooth="yes"></point>
      <point x="892" y="522"></point>
      <point x="935" y="535"></point>
      <point x="983" y="535" type="curve" smooth="yes"></point>
      <point x="1062" y="535"></point>
      <point x="1122" y="510"></point>
      <point x="1164" y="462" type="curve" smooth="yes"></point>
      <point x="1206" y="414"></point>
      <point x="1227" y="351"></point>
      <point x="1227" y="271" type="curve" smooth="yes"></point>
      <point x="1227" y="234"></point>
      <point x="1223" y="200"></point>
      <point x="1213" y="167" type="curve" smooth="yes"></point>
      <point x="1203" y="134"></point>
      <point x="1189" y="104"></point>
      <point x="1170" y="78" type="curve" smooth="yes"></point>
      <point x="1151" y="52"></point>
      <point x="1127" y="31"></point>
      <point x="1097" y="15" type="curve" smooth="yes"></point>
      <point x="1067" y="-1"></point>
      <point x="1033" y="-9"></point>
      <point x="995" y="-9" type="curve" smooth="yes"></point>
      <point x="915" y="-9"></point>
      <point x="852" y="15"></point>
    </contour>
    <contour>
      <point x="15" y="334" type="curve" smooth="yes"></point>
      <point x="-28" y="381"></point>
      <point x="-50" y="446"></point>
      <point x="-50" y="526" type="curve" smooth="yes"></point>
      <point x="-50" y="577"></point>
      <point x="-41" y="625"></point>
      <point x="-22" y="667" type="curve" smooth="yes"></point>
      <point x="-3" y="709"></point>
      <point x="25" y="744"></point>
      <point x="62" y="769" type="curve" smooth="yes"></point>
      <point x="99" y="794"></point>
      <point x="142" y="807"></point>
      <point x="190" y="807" type="curve" smooth="yes"></point>
      <point x="269" y="807"></point>
      <point x="329" y="782"></point>
      <point x="371" y="734" type="curve" smooth="yes"></point>
      <point x="413" y="686"></point>
      <point x="434" y="622"></point>
      <point x="434" y="542" type="curve" smooth="yes"></point>
      <point x="434" y="505"></point>
      <point x="430" y="471"></point>
      <point x="420" y="438" type="curve" smooth="yes"></point>
      <point x="410" y="405"></point>
      <point x="396" y="376"></point>
      <point x="377" y="350" type="curve" smooth="yes"></point>
      <point x="358" y="324"></point>
      <point x="334" y="303"></point>
      <point x="304" y="287" type="curve" smooth="yes"></point>
      <point x="274" y="271"></point>
      <point x="240" y="263"></point>
      <point x="202" y="263" type="curve" smooth="yes"></point>
      <point x="122" y="263"></point>
      <point x="59" y="287"></point>
    </contour>
  </outline>
</glyph>
<glyph name="ampersand" format="1">
  <advance width="848"></advance>
  <unicode hex="0026"></unicode>
  <outline>
    <contour>
      <point x="264" y="283" type="line"></point>
      <point x="242" y="263"></point>
      <point x="230" y="240"></point>
      <point x="230" y="219" type="curve" smooth="yes"></point>
      <point x="230" y="165"></point>
      <point x="274" y="140"></point>
      <point x="312" y="140" type="curve" smooth="yes"></point>
      <point x="342" y="140"></point>
      <point x="364" y="153"></point>
      <point x="377" y="169" type="curve"></point>
    </contour>
    <contour>
      <point x="577" y="0" type="line" smooth="yes"></point>
      <point x="558" y="0"></point>
      <point x="535" y="9"></point>
      <point x="522" y="23" type="curve" smooth="yes"></point>
      <point x="506" y="40"></point>
      <point x="486" y="61"></point>
      <point x="460" y="88" type="curve"></point>
      <point x="400" y="22"></point>
      <point x="325" y="-8"></point>
      <point x="235" y="-10" type="curve"></point>
      <point x="109" y="-10"></point>
      <point x="16" y="59"></point>
      <point x="14" y="183" type="curve"></point>
      <point x="16" y="283"></point>
      <point x="66" y="349"></point>
      <point x="168" y="393" type="curve"></point>
      <point x="130" y="435"></point>
      <point x="111" y="484"></point>
      <point x="110" y="541" type="curve"></point>
      <point x="110" y="665"></point>
      <point x="217" y="739"></point>
      <point x="345" y="739" type="curve" smooth="yes"></point>
      <point x="445" y="739"></point>
      <point x="553" y="674"></point>
      <point x="553" y="570" type="curve" smooth="yes"></point>
      <point x="553" y="490"></point>
      <point x="520" y="451"></point>
      <point x="452" y="391" type="curve"></point>
      <point x="535" y="301" type="line"></point>
      <point x="623" y="380" type="line" smooth="yes"></point>
      <point x="633" y="390"></point>
      <point x="636" y="398"></point>
      <point x="636" y="403" type="curve" smooth="yes"></point>
      <point x="636" y="414"></point>
      <point x="632" y="420"></point>
      <point x="623" y="420" type="curve" smooth="yes"></point>
      <point x="611" y="420" type="line" smooth="yes"></point>
      <point x="605" y="420"></point>
      <point x="600" y="425"></point>
      <point x="600" y="431" type="curve" smooth="yes"></point>
      <point x="600" y="511" type="line" smooth="yes"></point>
      <point x="600" y="529"></point>
      <point x="615" y="544"></point>
      <point x="633" y="544" type="curve" smooth="yes"></point>
      <point x="803" y="544" type="line" smooth="yes"></point>
      <point x="821" y="544"></point>
      <point x="836" y="529"></point>
      <point x="836" y="511" type="curve" smooth="yes"></point>
      <point x="836" y="453" type="line" smooth="yes"></point>
      <point x="836" y="435"></point>
      <point x="827" y="420"></point>
      <point x="810" y="413" type="curve" smooth="yes"></point>
      <point x="799" y="408"></point>
      <point x="790" y="403"></point>
      <point x="783" y="398" type="curve" smooth="yes"></point>
      <point x="771" y="389"></point>
      <point x="756" y="374"></point>
      <point x="733" y="353" type="curve" smooth="yes"></point>
      <point x="600" y="227" type="line"></point>
      <point x="689" y="140" type="line"></point>
      <point x="805" y="140" type="line" smooth="yes"></point>
      <point x="823" y="140"></point>
      <point x="838" y="125"></point>
      <point x="838" y="107" type="curve" smooth="yes"></point>
      <point x="838" y="33" type="line" smooth="yes"></point>
      <point x="838" y="15"></point>
      <point x="823" y="0"></point>
      <point x="805" y="0" type="curve" smooth="yes"></point>
    </contour>
    <contour>
      <point x="302" y="587" type="curve" smooth="yes"></point>
      <point x="302" y="585"></point>
      <point x="301" y="582"></point>
      <point x="301" y="580" type="curve" smooth="yes"></point>
      <point x="301" y="534"></point>
      <point x="376" y="485"></point>
      <point x="376" y="485" type="curve"></point>
      <point x="376" y="485"></point>
      <point x="426" y="508"></point>
      <point x="426" y="567" type="curve" smooth="yes"></point>
      <point x="426" y="573"></point>
      <point x="425" y="579"></point>
      <point x="424" y="586" type="curve" smooth="yes"></point>
      <point x="419" y="617"></point>
      <point x="389" y="635"></point>
      <point x="360" y="635" type="curve" smooth="yes"></point>
      <point x="333" y="635"></point>
      <point x="307" y="620"></point>
    </contour>
  </outline>
</glyph>
<glyph name="quotesingle" format="1">
  <advance width="496"></advance>
  <unicode hex="0027"></unicode>
  <outline>
    <contour>
      <point x="316" y="461" type="curve" smooth="yes"></point>
      <point x="235" y="461" type="line" smooth="yes"></point>
      <point x="216" y="461"></point>
      <point x="200" y="475"></point>
      <point x="198" y="494" type="curve" smooth="yes"></point>
      <point x="167" y="760" type="line" smooth="yes"></point>
      <point x="165" y="777"></point>
      <point x="178" y="793"></point>
      <point x="196" y="793" type="curve" smooth="yes"></point>
      <point x="364" y="793" type="line" smooth="yes"></point>
      <point x="381" y="793"></point>
      <point x="394" y="777"></point>
      <point x="392" y="760" type="curve" smooth="yes"></point>
      <point x="354" y="494" type="line" smooth="yes"></point>
      <point x="351" y="475"></point>
      <point x="335" y="461"></point>
    </contour>
  </outline>
</glyph>
<glyph name="parenleft" format="1">
  <advance width="608"></advance>
  <unicode hex="0028"></unicode>
  <outline>
    <contour>
      <point x="506" y="115" type="curve" smooth="yes"></point>
      <point x="506" y="22" type="line" smooth="yes"></point>
      <point x="506" y="6"></point>
      <point x="491" y="-9"></point>
      <point x="475" y="-9" type="curve" smooth="yes"></point>
      <point x="473" y="-9" type="line"></point>
      <point x="210" y="3"></point>
      <point x="88" y="191"></point>
      <point x="88" y="398" type="curve" smooth="yes"></point>
      <point x="88" y="656"></point>
      <point x="199" y="797"></point>
      <point x="475" y="806" type="curve"></point>
      <point x="477" y="806" type="line" smooth="yes"></point>
      <point x="493" y="806"></point>
      <point x="508" y="791"></point>
      <point x="508" y="774" type="curve" smooth="yes"></point>
      <point x="508" y="680" type="line" smooth="yes"></point>
      <point x="508" y="659"></point>
      <point x="495" y="645"></point>
      <point x="474" y="642" type="curve" smooth="yes"></point>
      <point x="353" y="622"></point>
      <point x="333" y="516"></point>
      <point x="333" y="399" type="curve" smooth="yes"></point>
      <point x="333" y="285"></point>
      <point x="354" y="171"></point>
      <point x="473" y="155" type="curve"></point>
      <point x="494" y="151"></point>
      <point x="506" y="137"></point>
    </contour>
  </outline>
</glyph>
<glyph name="parenright" format="1">
  <advance width="608"></advance>
  <unicode hex="0029"></unicode>
  <outline>
    <contour>
      <point x="249" y="12" type="curve" smooth="yes"></point>
      <point x="212" y="0"></point>
      <point x="172" y="-7"></point>
      <point x="128" y="-9" type="curve"></point>
      <point x="126" y="-9" type="line" smooth="yes"></point>
      <point x="110" y="-9"></point>
      <point x="95" y="6"></point>
      <point x="95" y="22" type="curve" smooth="yes"></point>
      <point x="95" y="115" type="line" smooth="yes"></point>
      <point x="95" y="137"></point>
      <point x="107" y="151"></point>
      <point x="128" y="155" type="curve" smooth="yes"></point>
      <point x="142" y="157"></point>
      <point x="155" y="161"></point>
      <point x="167" y="167" type="curve" smooth="yes"></point>
      <point x="188" y="177"></point>
      <point x="205" y="189"></point>
      <point x="217" y="205" type="curve" smooth="yes"></point>
      <point x="229" y="221"></point>
      <point x="239" y="240"></point>
      <point x="247" y="262" type="curve" smooth="yes"></point>
      <point x="255" y="284"></point>
      <point x="260" y="306"></point>
      <point x="263" y="328" type="curve" smooth="yes"></point>
      <point x="266" y="350"></point>
      <point x="268" y="374"></point>
      <point x="268" y="399" type="curve" smooth="yes"></point>
      <point x="268" y="420"></point>
      <point x="267" y="440"></point>
      <point x="266" y="457" type="curve" smooth="yes"></point>
      <point x="265" y="474"></point>
      <point x="262" y="492"></point>
      <point x="258" y="512" type="curve" smooth="yes"></point>
      <point x="254" y="532"></point>
      <point x="247" y="548"></point>
      <point x="239" y="563" type="curve" smooth="yes"></point>
      <point x="231" y="578"></point>
      <point x="220" y="591"></point>
      <point x="208" y="604" type="curve" smooth="yes"></point>
      <point x="196" y="617"></point>
      <point x="180" y="627"></point>
      <point x="160" y="634" type="curve" smooth="yes"></point>
      <point x="149" y="638"></point>
      <point x="138" y="641"></point>
      <point x="126" y="643" type="curve" smooth="yes"></point>
      <point x="106" y="646"></point>
      <point x="94" y="660"></point>
      <point x="94" y="680" type="curve" smooth="yes"></point>
      <point x="94" y="774" type="line" smooth="yes"></point>
      <point x="94" y="791"></point>
      <point x="109" y="806"></point>
      <point x="125" y="806" type="curve" smooth="yes"></point>
      <point x="127" y="806" type="line"></point>
      <point x="187" y="804"></point>
      <point x="240" y="795"></point>
      <point x="285" y="780" type="curve" smooth="yes"></point>
      <point x="339" y="762"></point>
      <point x="383" y="736"></point>
      <point x="416" y="701" type="curve" smooth="yes"></point>
      <point x="449" y="666"></point>
      <point x="473" y="624"></point>
      <point x="489" y="574" type="curve" smooth="yes"></point>
      <point x="505" y="524"></point>
      <point x="513" y="465"></point>
      <point x="513" y="398" type="curve" smooth="yes"></point>
      <point x="513" y="355"></point>
      <point x="507" y="313"></point>
      <point x="497" y="273" type="curve" smooth="yes"></point>
      <point x="487" y="233"></point>
      <point x="471" y="197"></point>
      <point x="449" y="162" type="curve" smooth="yes"></point>
      <point x="427" y="127"></point>
      <point x="399" y="97"></point>
      <point x="367" y="72" type="curve" smooth="yes"></point>
      <point x="335" y="47"></point>
      <point x="295" y="27"></point>
    </contour>
  </outline>
</glyph>
<glyph name="asterisk" format="1">
  <advance width="720"></advance>
  <unicode hex="002A"></unicode>
  <outline>
    <contour>
      <point x="438" y="206" type="curve" smooth="yes"></point>
      <point x="438" y="152"></point>
      <point x="401" y="118"></point>
      <point x="359" y="118" type="curve" smooth="yes"></point>
      <point x="317" y="118"></point>
      <point x="281" y="152"></point>
      <point x="281" y="206" type="curve" smooth="yes"></point>
      <point x="281" y="245"></point>
      <point x="288" y="281"></point>
      <point x="309" y="347" type="curve" smooth="yes"></point>
      <point x="316" y="369"></point>
      <point x="321" y="385"></point>
      <point x="323" y="391" type="curve"></point>
      <point x="322" y="389"></point>
      <point x="312" y="378"></point>
      <point x="295" y="357" type="curve" smooth="yes"></point>
      <point x="278" y="336"></point>
      <point x="266" y="322"></point>
      <point x="260" y="315" type="curve" smooth="yes"></point>
      <point x="254" y="308"></point>
      <point x="243" y="298"></point>
      <point x="230" y="285" type="curve" smooth="yes"></point>
      <point x="217" y="272"></point>
      <point x="205" y="262"></point>
      <point x="194" y="255" type="curve" smooth="yes"></point>
      <point x="175" y="244"></point>
      <point x="157" y="239"></point>
      <point x="141" y="239" type="curve" smooth="yes"></point>
      <point x="136" y="239"></point>
      <point x="131" y="239"></point>
      <point x="126" y="240" type="curve" smooth="yes"></point>
      <point x="91" y="247"></point>
      <point x="65" y="278"></point>
      <point x="65" y="315" type="curve" smooth="yes"></point>
      <point x="65" y="340"></point>
      <point x="80" y="369"></point>
      <point x="108" y="388" type="curve" smooth="yes"></point>
      <point x="124" y="398"></point>
      <point x="143" y="407"></point>
      <point x="165" y="416" type="curve" smooth="yes"></point>
      <point x="187" y="425"></point>
      <point x="215" y="433"></point>
      <point x="245" y="442" type="curve" smooth="yes"></point>
      <point x="275" y="451"></point>
      <point x="296" y="458"></point>
      <point x="306" y="461" type="curve"></point>
      <point x="297" y="464"></point>
      <point x="276" y="471"></point>
      <point x="245" y="480" type="curve" smooth="yes"></point>
      <point x="214" y="489"></point>
      <point x="188" y="498"></point>
      <point x="166" y="506" type="curve" smooth="yes"></point>
      <point x="144" y="514"></point>
      <point x="126" y="524"></point>
      <point x="110" y="534" type="curve" smooth="yes"></point>
      <point x="82" y="553"></point>
      <point x="67" y="582"></point>
      <point x="67" y="607" type="curve" smooth="yes"></point>
      <point x="67" y="644"></point>
      <point x="88" y="671"></point>
      <point x="122" y="678" type="curve" smooth="yes"></point>
      <point x="127" y="679"></point>
      <point x="132" y="679"></point>
      <point x="137" y="679" type="curve" smooth="yes"></point>
      <point x="154" y="679"></point>
      <point x="172" y="674"></point>
      <point x="191" y="663" type="curve" smooth="yes"></point>
      <point x="202" y="656"></point>
      <point x="213" y="646"></point>
      <point x="226" y="633" type="curve" smooth="yes"></point>
      <point x="239" y="620"></point>
      <point x="250" y="610"></point>
      <point x="257" y="602" type="curve" smooth="yes"></point>
      <point x="264" y="594"></point>
      <point x="276" y="580"></point>
      <point x="292" y="561" type="curve" smooth="yes"></point>
      <point x="308" y="542"></point>
      <point x="318" y="530"></point>
      <point x="321" y="526" type="curve"></point>
      <point x="320" y="531"></point>
      <point x="315" y="546"></point>
      <point x="308" y="569" type="curve" smooth="yes"></point>
      <point x="301" y="592"></point>
      <point x="296" y="610"></point>
      <point x="293" y="621" type="curve" smooth="yes"></point>
      <point x="290" y="632"></point>
      <point x="287" y="646"></point>
      <point x="284" y="664" type="curve" smooth="yes"></point>
      <point x="281" y="682"></point>
      <point x="279" y="697"></point>
      <point x="279" y="710" type="curve" smooth="yes"></point>
      <point x="279" y="764"></point>
      <point x="316" y="798"></point>
      <point x="358" y="798" type="curve" smooth="yes"></point>
      <point x="400" y="798"></point>
      <point x="436" y="764"></point>
      <point x="436" y="710" type="curve" smooth="yes"></point>
      <point x="436" y="700"></point>
      <point x="435" y="688"></point>
      <point x="434" y="676" type="curve" smooth="yes"></point>
      <point x="433" y="664"></point>
      <point x="430" y="651"></point>
      <point x="427" y="637" type="curve" smooth="yes"></point>
      <point x="424" y="623"></point>
      <point x="420" y="611"></point>
      <point x="417" y="601" type="curve" smooth="yes"></point>
      <point x="414" y="591"></point>
      <point x="411" y="579"></point>
      <point x="406" y="562" type="curve" smooth="yes"></point>
      <point x="401" y="545"></point>
      <point x="397" y="533"></point>
      <point x="395" y="527" type="curve"></point>
      <point x="400" y="532"></point>
      <point x="410" y="544"></point>
      <point x="425" y="562" type="curve" smooth="yes"></point>
      <point x="440" y="580"></point>
      <point x="451" y="593"></point>
      <point x="459" y="602" type="curve" smooth="yes"></point>
      <point x="467" y="611"></point>
      <point x="478" y="622"></point>
      <point x="491" y="634" type="curve" smooth="yes"></point>
      <point x="504" y="646"></point>
      <point x="515" y="657"></point>
      <point x="526" y="664" type="curve" smooth="yes"></point>
      <point x="545" y="675"></point>
      <point x="563" y="680"></point>
      <point x="579" y="680" type="curve" smooth="yes"></point>
      <point x="584" y="680"></point>
      <point x="589" y="680"></point>
      <point x="594" y="679" type="curve" smooth="yes"></point>
      <point x="629" y="672"></point>
      <point x="655" y="641"></point>
      <point x="655" y="604" type="curve" smooth="yes"></point>
      <point x="655" y="579"></point>
      <point x="640" y="550"></point>
      <point x="612" y="531" type="curve" smooth="yes"></point>
      <point x="596" y="521"></point>
      <point x="577" y="511"></point>
      <point x="555" y="503" type="curve" smooth="yes"></point>
      <point x="533" y="495"></point>
      <point x="506" y="486"></point>
      <point x="475" y="477" type="curve" smooth="yes"></point>
      <point x="444" y="468"></point>
      <point x="424" y="461"></point>
      <point x="415" y="458" type="curve"></point>
      <point x="426" y="454"></point>
      <point x="446" y="448"></point>
      <point x="476" y="439" type="curve" smooth="yes"></point>
      <point x="506" y="430"></point>
      <point x="534" y="422"></point>
      <point x="556" y="413" type="curve" smooth="yes"></point>
      <point x="578" y="404"></point>
      <point x="597" y="394"></point>
      <point x="613" y="384" type="curve" smooth="yes"></point>
      <point x="641" y="365"></point>
      <point x="656" y="337"></point>
      <point x="656" y="312" type="curve" smooth="yes"></point>
      <point x="656" y="275"></point>
      <point x="630" y="243"></point>
      <point x="595" y="236" type="curve" smooth="yes"></point>
      <point x="590" y="235"></point>
      <point x="586" y="235"></point>
      <point x="581" y="235" type="curve" smooth="yes"></point>
      <point x="555" y="235"></point>
      <point x="526" y="248"></point>
      <point x="491" y="281" type="curve" smooth="yes"></point>
      <point x="478" y="293"></point>
      <point x="468" y="304"></point>
      <point x="460" y="313" type="curve" smooth="yes"></point>
      <point x="452" y="322"></point>
      <point x="441" y="335"></point>
      <point x="425" y="354" type="curve" smooth="yes"></point>
      <point x="409" y="373"></point>
      <point x="399" y="385"></point>
      <point x="395" y="389" type="curve"></point>
      <point x="396" y="385"></point>
      <point x="402" y="370"></point>
      <point x="409" y="346" type="curve" smooth="yes"></point>
      <point x="430" y="274"></point>
      <point x="438" y="245"></point>
    </contour>
  </outline>
</glyph>
<glyph name="plus" format="1">
  <advance width="592"></advance>
  <unicode hex="002B"></unicode>
  <outline>
    <contour>
      <point x="330" y="116" type="curve" smooth="yes"></point>
      <point x="272" y="116" type="line" smooth="yes"></point>
      <point x="254" y="116"></point>
      <point x="239" y="131"></point>
      <point x="239" y="149" type="curve" smooth="yes"></point>
      <point x="239" y="252" type="line"></point>
      <point x="139" y="252" type="line" smooth="yes"></point>
      <point x="121" y="252"></point>
      <point x="106" y="267"></point>
      <point x="106" y="285" type="curve" smooth="yes"></point>
      <point x="106" y="339" type="line" smooth="yes"></point>
      <point x="106" y="357"></point>
      <point x="121" y="372"></point>
      <point x="139" y="372" type="curve" smooth="yes"></point>
      <point x="239" y="372" type="line"></point>
      <point x="239" y="480" type="line" smooth="yes"></point>
      <point x="239" y="498"></point>
      <point x="254" y="513"></point>
      <point x="272" y="513" type="curve" smooth="yes"></point>
      <point x="330" y="513" type="line" smooth="yes"></point>
      <point x="348" y="513"></point>
      <point x="363" y="498"></point>
      <point x="363" y="480" type="curve" smooth="yes"></point>
      <point x="363" y="372" type="line"></point>
      <point x="460" y="372" type="line" smooth="yes"></point>
      <point x="478" y="372"></point>
      <point x="493" y="357"></point>
      <point x="493" y="339" type="curve" smooth="yes"></point>
      <point x="493" y="285" type="line" smooth="yes"></point>
      <point x="493" y="267"></point>
      <point x="478" y="252"></point>
      <point x="460" y="252" type="curve" smooth="yes"></point>
      <point x="363" y="252" type="line"></point>
      <point x="363" y="149" type="line" smooth="yes"></point>
      <point x="363" y="131"></point>
      <point x="348" y="116"></point>
    </contour>
  </outline>
</glyph>
<glyph name="comma" format="1">
  <advance width="512"></advance>
  <unicode hex="002C"></unicode>
  <outline>
    <contour>
      <point x="124" y="-205" type="curve" smooth="yes"></point>
      <point x="124" y="-124" type="line" smooth="yes"></point>
      <point x="124" y="-117"></point>
      <point x="131" y="-109"></point>
      <point x="138" y="-109" type="curve" smooth="yes"></point>
      <point x="179" y="-106"></point>
      <point x="206" y="-94"></point>
      <point x="213" y="-58" type="curve" smooth="yes"></point>
      <point x="217" y="-36"></point>
      <point x="217" y="-27"></point>
      <point x="217" y="0" type="curve"></point>
      <point x="139" y="0" type="line" smooth="yes"></point>
      <point x="133" y="0"></point>
      <point x="125" y="8"></point>
      <point x="125" y="14" type="curve" smooth="yes"></point>
      <point x="125" y="164" type="line" smooth="yes"></point>
      <point x="125" y="170"></point>
      <point x="133" y="178"></point>
      <point x="139" y="178" type="curve" smooth="yes"></point>
      <point x="360" y="178" type="line" smooth="yes"></point>
      <point x="367" y="178"></point>
      <point x="375" y="171"></point>
      <point x="376" y="164" type="curve" smooth="yes"></point>
      <point x="383" y="119"></point>
      <point x="385" y="79"></point>
      <point x="385" y="43" type="curve" smooth="yes"></point>
      <point x="385" y="-132"></point>
      <point x="308" y="-214"></point>
      <point x="138" y="-219" type="curve" smooth="yes"></point>
      <point x="132" y="-219"></point>
      <point x="124" y="-211"></point>
    </contour>
  </outline>
</glyph>
<glyph name="hyphen" format="1">
  <advance width="560"></advance>
  <unicode hex="002D"></unicode>
  <outline>
    <contour>
      <point x="411" y="262" type="curve" smooth="yes"></point>
      <point x="142" y="262" type="line" smooth="yes"></point>
      <point x="124" y="262"></point>
      <point x="109" y="277"></point>
      <point x="109" y="295" type="curve" smooth="yes"></point>
      <point x="109" y="375" type="line" smooth="yes"></point>
      <point x="109" y="393"></point>
      <point x="124" y="408"></point>
      <point x="142" y="408" type="curve" smooth="yes"></point>
      <point x="411" y="408" type="line" smooth="yes"></point>
      <point x="429" y="408"></point>
      <point x="444" y="393"></point>
      <point x="444" y="375" type="curve" smooth="yes"></point>
      <point x="444" y="295" type="line" smooth="yes"></point>
      <point x="444" y="277"></point>
      <point x="429" y="262"></point>
    </contour>
  </outline>
</glyph>
<glyph name="period" format="1">
  <advance width="496"></advance>
  <unicode hex="002E"></unicode>
  <outline>
    <contour>
      <point x="385" y="111" type="curve" smooth="yes"></point>
      <point x="385" y="35"></point>
      <point x="326" y="-11"></point>
      <point x="244" y="-11" type="curve" smooth="yes"></point>
      <point x="169" y="-11"></point>
      <point x="109" y="35"></point>
      <point x="109" y="111" type="curve" smooth="yes"></point>
      <point x="109" y="185"></point>
      <point x="164" y="231"></point>
      <point x="244" y="231" type="curve" smooth="yes"></point>
      <point x="328" y="231"></point>
      <point x="385" y="185"></point>
    </contour>
  </outline>
</glyph>
<glyph name="slash" format="1">
  <advance width="512"></advance>
  <unicode hex="002F"></unicode>
  <outline>
    <contour>
      <point x="176" y="0" type="curve" smooth="yes"></point>
      <point x="109" y="0" type="line" smooth="yes"></point>
      <point x="96" y="0"></point>
      <point x="85" y="12"></point>
      <point x="85" y="25" type="curve" smooth="yes"></point>
      <point x="85" y="27"></point>
      <point x="85" y="29"></point>
      <point x="86" y="32" type="curve" smooth="yes"></point>
      <point x="316" y="760" type="line" smooth="yes"></point>
      <point x="322" y="779"></point>
      <point x="340" y="792"></point>
      <point x="359" y="792" type="curve" smooth="yes"></point>
      <point x="421" y="792" type="line" smooth="yes"></point>
      <point x="435" y="792"></point>
      <point x="445" y="781"></point>
      <point x="445" y="768" type="curve" smooth="yes"></point>
      <point x="445" y="766"></point>
      <point x="445" y="762"></point>
      <point x="444" y="760" type="curve" smooth="yes"></point>
      <point x="219" y="32" type="line" smooth="yes"></point>
      <point x="213" y="13"></point>
      <point x="196" y="0"></point>
    </contour>
  </outline>
</glyph>
<glyph name="zero" format="1">
  <advance width="720"></advance>
  <unicode hex="0030"></unicode>
  <outline>
    <contour>
      <point x="662" y="342" type="curve" smooth="yes"></point>
      <point x="662" y="132"></point>
      <point x="559" y="-10"></point>
      <point x="361" y="-10" type="curve" smooth="yes"></point>
      <point x="163" y="-10"></point>
      <point x="59" y="129"></point>
      <point x="59" y="342" type="curve" smooth="yes"></point>
      <point x="59" y="526"></point>
      <point x="180" y="670"></point>
      <point x="360" y="670" type="curve" smooth="yes"></point>
      <point x="540" y="670"></point>
      <point x="662" y="526"></point>
    </contour>
    <contour>
      <point x="359" y="150" type="curve" smooth="yes"></point>
      <point x="415" y="150"></point>
      <point x="423" y="212"></point>
      <point x="423" y="288" type="curve" smooth="yes"></point>
      <point x="423" y="399" type="line" smooth="yes"></point>
      <point x="423" y="453"></point>
      <point x="412" y="509"></point>
      <point x="358" y="509" type="curve" smooth="yes"></point>
      <point x="308" y="509"></point>
      <point x="295" y="460"></point>
      <point x="295" y="405" type="curve" smooth="yes"></point>
      <point x="295" y="289" type="line" smooth="yes"></point>
      <point x="295" y="214"></point>
      <point x="302" y="150"></point>
    </contour>
  </outline>
</glyph>
<glyph name="one" format="1">
  <advance width="560"></advance>
  <unicode hex="0031"></unicode>
  <outline>
    <contour>
      <point x="462" y="0" type="curve" smooth="yes"></point>
      <point x="98" y="0" type="line" smooth="yes"></point>
      <point x="80" y="0"></point>
      <point x="65" y="15"></point>
      <point x="65" y="33" type="curve" smooth="yes"></point>
      <point x="65" y="108" type="line" smooth="yes"></point>
      <point x="65" y="125"></point>
      <point x="79" y="140"></point>
      <point x="96" y="140" type="curve" smooth="yes"></point>
      <point x="98" y="140" type="line"></point>
      <point x="162" y="140" type="line"></point>
      <point x="162" y="464" type="line"></point>
      <point x="105" y="464" type="line" smooth="yes"></point>
      <point x="87" y="464"></point>
      <point x="72" y="479"></point>
      <point x="72" y="497" type="curve" smooth="yes"></point>
      <point x="72" y="557" type="line" smooth="yes"></point>
      <point x="72" y="576"></point>
      <point x="86" y="593"></point>
      <point x="104" y="598" type="curve" smooth="yes"></point>
      <point x="373" y="663" type="line" smooth="yes"></point>
      <point x="375" y="663"></point>
      <point x="377" y="664"></point>
      <point x="379" y="664" type="curve" smooth="yes"></point>
      <point x="393" y="664"></point>
      <point x="405" y="652"></point>
      <point x="405" y="638" type="curve" smooth="yes"></point>
      <point x="405" y="140" type="line"></point>
      <point x="462" y="140" type="line" smooth="yes"></point>
      <point x="480" y="140"></point>
      <point x="495" y="125"></point>
      <point x="495" y="107" type="curve" smooth="yes"></point>
      <point x="495" y="33" type="line" smooth="yes"></point>
      <point x="495" y="15"></point>
      <point x="480" y="0"></point>
    </contour>
  </outline>
</glyph>
<glyph name="two" format="1">
  <advance width="704"></advance>
  <unicode hex="0032"></unicode>
  <outline>
    <contour>
      <point x="610" y="0" type="curve" smooth="yes"></point>
      <point x="118" y="0" type="line" smooth="yes"></point>
      <point x="100" y="0"></point>
      <point x="85" y="15"></point>
      <point x="85" y="33" type="curve" smooth="yes"></point>
      <point x="85" y="114" type="line" smooth="yes"></point>
      <point x="85" y="134"></point>
      <point x="97" y="149"></point>
      <point x="116" y="161" type="curve" smooth="yes"></point>
      <point x="251" y="247"></point>
      <point x="351" y="295"></point>
      <point x="351" y="418" type="curve"></point>
      <point x="349" y="468"></point>
      <point x="317" y="502"></point>
      <point x="283" y="502" type="curve" smooth="yes"></point>
      <point x="241" y="502"></point>
      <point x="218" y="473"></point>
      <point x="218" y="433" type="curve" smooth="yes"></point>
      <point x="218" y="413"></point>
      <point x="233" y="386"></point>
      <point x="239" y="378" type="curve" smooth="yes"></point>
      <point x="241" y="376"></point>
      <point x="242" y="374"></point>
      <point x="244" y="373" type="curve" smooth="yes"></point>
      <point x="245" y="372"></point>
      <point x="246" y="371"></point>
      <point x="246" y="369" type="curve" smooth="yes"></point>
      <point x="246" y="368"></point>
      <point x="245" y="367"></point>
      <point x="244" y="366" type="curve" smooth="yes"></point>
      <point x="162" y="303" type="line" smooth="yes"></point>
      <point x="156" y="299"></point>
      <point x="149" y="297"></point>
      <point x="141" y="297" type="curve" smooth="yes"></point>
      <point x="131" y="297"></point>
      <point x="121" y="301"></point>
      <point x="115" y="308" type="curve" smooth="yes"></point>
      <point x="81" y="347"></point>
      <point x="65" y="398"></point>
      <point x="65" y="454" type="curve" smooth="yes"></point>
      <point x="65" y="461" type="line" smooth="yes"></point>
      <point x="65" y="593"></point>
      <point x="207" y="675"></point>
      <point x="334" y="675" type="curve" smooth="yes"></point>
      <point x="491" y="675"></point>
      <point x="600" y="590"></point>
      <point x="600" y="450" type="curve" smooth="yes"></point>
      <point x="600" y="350"></point>
      <point x="536" y="274"></point>
      <point x="448" y="210" type="curve" smooth="yes"></point>
      <point x="372" y="155" type="line"></point>
      <point x="491" y="155" type="line" smooth="yes"></point>
      <point x="520" y="155"></point>
      <point x="550" y="179"></point>
      <point x="554" y="209" type="curve"></point>
      <point x="557" y="221"></point>
      <point x="564" y="227"></point>
      <point x="576" y="227" type="curve" smooth="yes"></point>
      <point x="607" y="227" type="line" smooth="yes"></point>
      <point x="625" y="227"></point>
      <point x="640" y="212"></point>
      <point x="640" y="194" type="curve" smooth="yes"></point>
      <point x="643" y="33" type="line" smooth="yes"></point>
      <point x="643" y="15"></point>
      <point x="628" y="0"></point>
    </contour>
  </outline>
</glyph>
<glyph name="three" format="1">
  <advance width="688"></advance>
  <unicode hex="0033"></unicode>
  <outline>
    <contour>
      <point x="625" y="231" type="curve" smooth="yes"></point>
      <point x="625" y="77"></point>
      <point x="504" y="-9"></point>
      <point x="308" y="-9" type="curve" smooth="yes"></point>
      <point x="223" y="-9"></point>
      <point x="157" y="2"></point>
      <point x="105" y="27" type="curve" smooth="yes"></point>
      <point x="90" y="34"></point>
      <point x="76" y="57"></point>
      <point x="76" y="73" type="curve" smooth="yes"></point>
      <point x="76" y="173" type="line" smooth="yes"></point>
      <point x="76" y="183"></point>
      <point x="84" y="190"></point>
      <point x="93" y="190" type="curve" smooth="yes"></point>
      <point x="96" y="190"></point>
      <point x="100" y="189"></point>
      <point x="103" y="187" type="curve" smooth="yes"></point>
      <point x="153" y="153"></point>
      <point x="204" y="136"></point>
      <point x="257" y="136" type="curve" smooth="yes"></point>
      <point x="309" y="136"></point>
      <point x="365" y="156"></point>
      <point x="365" y="208" type="curve" smooth="yes"></point>
      <point x="365" y="268"></point>
      <point x="305" y="289"></point>
      <point x="245" y="289" type="curve" smooth="yes"></point>
      <point x="219" y="289"></point>
      <point x="187" y="279"></point>
      <point x="183" y="279" type="curve" smooth="yes"></point>
      <point x="181" y="279"></point>
      <point x="179" y="280"></point>
      <point x="177" y="281" type="curve" smooth="yes"></point>
      <point x="175" y="281"></point>
      <point x="173" y="284"></point>
      <point x="173" y="286" type="curve" smooth="yes"></point>
      <point x="173" y="328" type="line" smooth="yes"></point>
      <point x="173" y="348"></point>
      <point x="183" y="370"></point>
      <point x="198" y="383" type="curve" smooth="yes"></point>
      <point x="340" y="508" type="line"></point>
      <point x="232" y="508" type="line"></point>
      <point x="214" y="508" type="line" smooth="yes"></point>
      <point x="196" y="508"></point>
      <point x="185" y="504"></point>
      <point x="172" y="462" type="curve" smooth="yes"></point>
      <point x="167" y="448"></point>
      <point x="154" y="438"></point>
      <point x="138" y="438" type="curve" smooth="yes"></point>
      <point x="103" y="438" type="line" smooth="yes"></point>
      <point x="85" y="438"></point>
      <point x="70" y="454"></point>
      <point x="70" y="472" type="curve" smooth="yes"></point>
      <point x="70" y="627" type="line" smooth="yes"></point>
      <point x="70" y="645"></point>
      <point x="85" y="660"></point>
      <point x="103" y="660" type="curve" smooth="yes"></point>
      <point x="559" y="660" type="line" smooth="yes"></point>
      <point x="577" y="660"></point>
      <point x="592" y="645"></point>
      <point x="592" y="627" type="curve" smooth="yes"></point>
      <point x="592" y="531" type="line" smooth="yes"></point>
      <point x="592" y="530"></point>
      <point x="546" y="492"></point>
      <point x="454" y="416" type="curve"></point>
      <point x="548" y="408"></point>
      <point x="625" y="321"></point>
    </contour>
  </outline>
</glyph>
<glyph name="four" format="1">
  <advance width="688"></advance>
  <unicode hex="0034"></unicode>
  <outline>
    <contour>
      <point x="221" y="331" type="line"></point>
      <point x="313" y="331" type="line"></point>
      <point x="313" y="445" type="line"></point>
    </contour>
    <contour>
      <point x="562" y="0" type="curve" smooth="yes"></point>
      <point x="284" y="0" type="line" smooth="yes"></point>
      <point x="266" y="0"></point>
      <point x="251" y="15"></point>
      <point x="251" y="33" type="curve" smooth="yes"></point>
      <point x="251" y="108" type="line" smooth="yes"></point>
      <point x="251" y="126"></point>
      <point x="266" y="141"></point>
      <point x="284" y="141" type="curve" smooth="yes"></point>
      <point x="313" y="141" type="line"></point>
      <point x="313" y="205" type="line"></point>
      <point x="86" y="205" type="line" smooth="yes"></point>
      <point x="68" y="205"></point>
      <point x="53" y="220"></point>
      <point x="53" y="238" type="curve" smooth="yes"></point>
      <point x="53" y="303" type="line" smooth="yes"></point>
      <point x="53" y="323"></point>
      <point x="61" y="345"></point>
      <point x="74" y="361" type="curve" smooth="yes"></point>
      <point x="301" y="630" type="line" smooth="yes"></point>
      <point x="314" y="646"></point>
      <point x="335" y="655"></point>
      <point x="355" y="655" type="curve" smooth="yes"></point>
      <point x="503" y="655" type="line" smooth="yes"></point>
      <point x="521" y="655"></point>
      <point x="536" y="640"></point>
      <point x="536" y="622" type="curve" smooth="yes"></point>
      <point x="536" y="330" type="line"></point>
      <point x="614" y="330" type="line" smooth="yes"></point>
      <point x="632" y="330"></point>
      <point x="647" y="315"></point>
      <point x="647" y="297" type="curve" smooth="yes"></point>
      <point x="647" y="238" type="line" smooth="yes"></point>
      <point x="647" y="220"></point>
      <point x="632" y="205"></point>
      <point x="614" y="205" type="curve" smooth="yes"></point>
      <point x="536" y="205" type="line"></point>
      <point x="536" y="141" type="line"></point>
      <point x="562" y="141" type="line" smooth="yes"></point>
      <point x="580" y="141"></point>
      <point x="595" y="126"></point>
      <point x="595" y="108" type="curve" smooth="yes"></point>
      <point x="595" y="33" type="line" smooth="yes"></point>
      <point x="595" y="15"></point>
      <point x="580" y="0"></point>
    </contour>
  </outline>
</glyph>
<glyph name="five" format="1">
  <advance width="640"></advance>
  <unicode hex="0035"></unicode>
  <outline>
    <contour>
      <point x="571" y="250" type="curve" smooth="yes"></point>
      <point x="571" y="70"></point>
      <point x="431" y="-10"></point>
      <point x="266" y="-10" type="curve" smooth="yes"></point>
      <point x="217" y="-10"></point>
      <point x="152" y="-4"></point>
      <point x="115" y="18" type="curve" smooth="yes"></point>
      <point x="95" y="30"></point>
      <point x="88" y="37"></point>
      <point x="88" y="61" type="curve" smooth="yes"></point>
      <point x="88" y="131" type="line" smooth="yes"></point>
      <point x="88" y="154"></point>
      <point x="97" y="161"></point>
      <point x="106" y="161" type="curve" smooth="yes"></point>
      <point x="109" y="161"></point>
      <point x="112" y="160"></point>
      <point x="115" y="159" type="curve" smooth="yes"></point>
      <point x="131" y="151"></point>
      <point x="156" y="140"></point>
      <point x="191" y="137" type="curve"></point>
      <point x="204" y="137" type="line" smooth="yes"></point>
      <point x="255" y="137"></point>
      <point x="303" y="158"></point>
      <point x="303" y="217" type="curve" smooth="yes"></point>
      <point x="303" y="270"></point>
      <point x="260" y="302"></point>
      <point x="196" y="302" type="curve" smooth="yes"></point>
      <point x="191" y="302"></point>
      <point x="185" y="301"></point>
      <point x="179" y="301" type="curve" smooth="yes"></point>
      <point x="159" y="299"></point>
      <point x="139" y="296"></point>
      <point x="120" y="288" type="curve" smooth="yes"></point>
      <point x="117" y="286"></point>
      <point x="113" y="286"></point>
      <point x="110" y="286" type="curve" smooth="yes"></point>
      <point x="99" y="286"></point>
      <point x="90" y="295"></point>
      <point x="90" y="307" type="curve" smooth="yes"></point>
      <point x="90" y="630" type="line" smooth="yes"></point>
      <point x="90" y="648"></point>
      <point x="105" y="663"></point>
      <point x="123" y="663" type="curve" smooth="yes"></point>
      <point x="501" y="663" type="line" smooth="yes"></point>
      <point x="519" y="663"></point>
      <point x="534" y="648"></point>
      <point x="534" y="630" type="curve" smooth="yes"></point>
      <point x="534" y="551" type="line" smooth="yes"></point>
      <point x="534" y="533"></point>
      <point x="519" y="518"></point>
      <point x="501" y="518" type="curve" smooth="yes"></point>
      <point x="236" y="518" type="line"></point>
      <point x="236" y="450" type="line"></point>
      <point x="264" y="455"></point>
      <point x="303" y="458"></point>
      <point x="339" y="458" type="curve" smooth="yes"></point>
      <point x="469" y="458"></point>
      <point x="571" y="370"></point>
    </contour>
  </outline>
</glyph>
<glyph name="six" format="1">
  <advance width="720"></advance>
  <unicode hex="0036"></unicode>
  <outline>
    <contour>
      <point x="359" y="-10" type="curve" smooth="yes"></point>
      <point x="188" y="-10"></point>
      <point x="53" y="102"></point>
      <point x="53" y="261" type="curve" smooth="yes"></point>
      <point x="53" y="405"></point>
      <point x="165" y="507"></point>
      <point x="296" y="638" type="curve" smooth="yes"></point>
      <point x="308" y="650"></point>
      <point x="319" y="657"></point>
      <point x="341" y="657" type="curve" smooth="yes"></point>
      <point x="544" y="657" type="line" smooth="yes"></point>
      <point x="554" y="657"></point>
      <point x="562" y="650"></point>
      <point x="562" y="642" type="curve" smooth="yes"></point>
      <point x="562" y="638"></point>
      <point x="560" y="635"></point>
      <point x="556" y="631" type="curve" smooth="yes"></point>
      <point x="489" y="570"></point>
      <point x="437" y="518"></point>
      <point x="431" y="500" type="curve"></point>
      <point x="571" y="494"></point>
      <point x="662" y="403"></point>
      <point x="662" y="265" type="curve" smooth="yes"></point>
      <point x="662" y="112"></point>
      <point x="518" y="-10"></point>
    </contour>
    <contour>
      <point x="303" y="269" type="curve" smooth="yes"></point>
      <point x="303" y="225"></point>
      <point x="310" y="164"></point>
      <point x="354" y="161" type="curve"></point>
      <point x="359" y="161" type="line" smooth="yes"></point>
      <point x="402" y="161"></point>
      <point x="411" y="199"></point>
      <point x="411" y="267" type="curve" smooth="yes"></point>
      <point x="411" y="327"></point>
      <point x="401" y="375"></point>
      <point x="361" y="379" type="curve"></point>
      <point x="354" y="379" type="line" smooth="yes"></point>
      <point x="306" y="379"></point>
      <point x="303" y="326"></point>
    </contour>
  </outline>
</glyph>
<glyph name="seven" format="1">
  <advance width="656"></advance>
  <unicode hex="0037"></unicode>
  <outline>
    <contour>
      <point x="318" y="0" type="curve" smooth="yes"></point>
      <point x="124" y="0" type="line" smooth="yes"></point>
      <point x="112" y="0"></point>
      <point x="104" y="10"></point>
      <point x="104" y="21" type="curve" smooth="yes"></point>
      <point x="104" y="24"></point>
      <point x="104" y="27"></point>
      <point x="106" y="30" type="curve" smooth="yes"></point>
      <point x="338" y="498" type="line"></point>
      <point x="220" y="498" type="line" smooth="yes"></point>
      <point x="198" y="498"></point>
      <point x="181" y="493"></point>
      <point x="171" y="484" type="curve" smooth="yes"></point>
      <point x="165" y="478"></point>
      <point x="161" y="469"></point>
      <point x="158" y="456" type="curve" smooth="yes"></point>
      <point x="155" y="438"></point>
      <point x="143" y="428"></point>
      <point x="125" y="428" type="curve" smooth="yes"></point>
      <point x="83" y="428" type="line" smooth="yes"></point>
      <point x="65" y="428"></point>
      <point x="50" y="443"></point>
      <point x="50" y="461" type="curve" smooth="yes"></point>
      <point x="50" y="620" type="line" smooth="yes"></point>
      <point x="50" y="638"></point>
      <point x="65" y="653"></point>
      <point x="83" y="653" type="curve" smooth="yes"></point>
      <point x="575" y="653" type="line" smooth="yes"></point>
      <point x="593" y="653"></point>
      <point x="608" y="638"></point>
      <point x="608" y="620" type="curve" smooth="yes"></point>
      <point x="608" y="554" type="line" smooth="yes"></point>
      <point x="608" y="535"></point>
      <point x="602" y="509"></point>
      <point x="593" y="491" type="curve" smooth="yes"></point>
      <point x="366" y="30" type="line" smooth="yes"></point>
      <point x="357" y="12"></point>
      <point x="338" y="0"></point>
    </contour>
  </outline>
</glyph>
<glyph name="eight" format="1">
  <advance width="704"></advance>
  <unicode hex="0038"></unicode>
  <outline>
    <contour>
      <point x="639" y="183" type="curve" smooth="yes"></point>
      <point x="639" y="33"></point>
      <point x="477" y="-10"></point>
      <point x="347" y="-10" type="curve" smooth="yes"></point>
      <point x="217" y="-10"></point>
      <point x="58" y="33"></point>
      <point x="53" y="183" type="curve"></point>
      <point x="53" y="184" type="line" smooth="yes"></point>
      <point x="53" y="266"></point>
      <point x="95" y="322"></point>
      <point x="180" y="355" type="curve"></point>
      <point x="124" y="377"></point>
      <point x="91" y="428"></point>
      <point x="91" y="492" type="curve" smooth="yes"></point>
      <point x="91" y="632"></point>
      <point x="237" y="672"></point>
      <point x="347" y="672" type="curve" smooth="yes"></point>
      <point x="452" y="672"></point>
      <point x="601" y="633"></point>
      <point x="601" y="493" type="curve" smooth="yes"></point>
      <point x="601" y="429"></point>
      <point x="568" y="378"></point>
      <point x="512" y="356" type="curve"></point>
      <point x="597" y="323"></point>
      <point x="639" y="266"></point>
    </contour>
    <contour>
      <point x="305" y="480" type="curve" smooth="yes"></point>
      <point x="305" y="436"></point>
      <point x="325" y="390"></point>
      <point x="348" y="390" type="curve" smooth="yes"></point>
      <point x="368" y="390"></point>
      <point x="388" y="428"></point>
      <point x="388" y="481" type="curve" smooth="yes"></point>
      <point x="388" y="517"></point>
      <point x="378" y="547"></point>
      <point x="346" y="547" type="curve" smooth="yes"></point>
      <point x="315" y="547"></point>
      <point x="305" y="523"></point>
    </contour>
    <contour>
      <point x="347" y="287" type="curve" smooth="yes"></point>
      <point x="320" y="287"></point>
      <point x="307" y="253"></point>
      <point x="307" y="197" type="curve" smooth="yes"></point>
      <point x="307" y="143"></point>
      <point x="320" y="116"></point>
      <point x="346" y="116" type="curve" smooth="yes"></point>
      <point x="372" y="116"></point>
      <point x="385" y="143"></point>
      <point x="385" y="197" type="curve" smooth="yes"></point>
      <point x="385" y="253"></point>
      <point x="372" y="287"></point>
    </contour>
  </outline>
</glyph>
<glyph name="nine" format="1">
  <advance width="704"></advance>
  <unicode hex="0039"></unicode>
  <outline>
    <contour>
      <point x="374" y="0" type="curve" smooth="yes"></point>
      <point x="159" y="0" type="line" smooth="yes"></point>
      <point x="153" y="0"></point>
      <point x="148" y="4"></point>
      <point x="148" y="11" type="curve" smooth="yes"></point>
      <point x="148" y="15"></point>
      <point x="150" y="20"></point>
      <point x="155" y="25" type="curve" smooth="yes"></point>
      <point x="226" y="92" type="line" smooth="yes"></point>
      <point x="253" y="117"></point>
      <point x="271" y="140"></point>
      <point x="284" y="157" type="curve"></point>
      <point x="150" y="157"></point>
      <point x="47" y="253"></point>
      <point x="47" y="381" type="curve" smooth="yes"></point>
      <point x="47" y="547"></point>
      <point x="176" y="667"></point>
      <point x="360" y="667" type="curve" smooth="yes"></point>
      <point x="528" y="667"></point>
      <point x="658" y="549"></point>
      <point x="658" y="396" type="curve" smooth="yes"></point>
      <point x="658" y="263"></point>
      <point x="545" y="147"></point>
      <point x="415" y="17" type="curve" smooth="yes"></point>
      <point x="405" y="7"></point>
      <point x="389" y="0"></point>
    </contour>
    <contour>
      <point x="356" y="493" type="curve" smooth="yes"></point>
      <point x="320" y="493"></point>
      <point x="302" y="456"></point>
      <point x="302" y="381" type="curve" smooth="yes"></point>
      <point x="302" y="313"></point>
      <point x="319" y="279"></point>
      <point x="355" y="279" type="curve" smooth="yes"></point>
      <point x="387" y="279"></point>
      <point x="403" y="314"></point>
      <point x="403" y="385" type="curve" smooth="yes"></point>
      <point x="403" y="421"></point>
      <point x="396" y="493"></point>
    </contour>
  </outline>
</glyph>
<glyph name="colon" format="1">
  <advance width="512"></advance>
  <unicode hex="003A"></unicode>
  <outline>
    <contour>
      <point x="389" y="413" type="curve" smooth="yes"></point>
      <point x="389" y="337"></point>
      <point x="330" y="291"></point>
      <point x="248" y="291" type="curve" smooth="yes"></point>
      <point x="170" y="291"></point>
      <point x="113" y="337"></point>
      <point x="113" y="413" type="curve" smooth="yes"></point>
      <point x="113" y="487"></point>
      <point x="169" y="533"></point>
      <point x="249" y="533" type="curve" smooth="yes"></point>
      <point x="333" y="533"></point>
      <point x="389" y="487"></point>
    </contour>
    <contour>
      <point x="388" y="113" type="curve" smooth="yes"></point>
      <point x="388" y="37"></point>
      <point x="329" y="-8"></point>
      <point x="247" y="-10" type="curve"></point>
      <point x="169" y="-10"></point>
      <point x="112" y="37"></point>
      <point x="112" y="113" type="curve" smooth="yes"></point>
      <point x="112" y="187"></point>
      <point x="168" y="232"></point>
      <point x="248" y="232" type="curve" smooth="yes"></point>
      <point x="332" y="232"></point>
      <point x="388" y="187"></point>
    </contour>
  </outline>
</glyph>
<glyph name="semicolon" format="1">
  <advance width="512"></advance>
  <unicode hex="003B"></unicode>
  <outline>
    <contour>
      <point x="391" y="412" type="curve" smooth="yes"></point>
      <point x="391" y="336"></point>
      <point x="332" y="291"></point>
      <point x="250" y="289" type="curve"></point>
      <point x="172" y="289"></point>
      <point x="115" y="336"></point>
      <point x="115" y="412" type="curve" smooth="yes"></point>
      <point x="115" y="486"></point>
      <point x="171" y="531"></point>
      <point x="251" y="531" type="curve" smooth="yes"></point>
      <point x="335" y="531"></point>
      <point x="391" y="486"></point>
    </contour>
    <contour>
      <point x="119" y="-205" type="curve" smooth="yes"></point>
      <point x="119" y="-124" type="line" smooth="yes"></point>
      <point x="119" y="-117"></point>
      <point x="126" y="-109"></point>
      <point x="133" y="-109" type="curve" smooth="yes"></point>
      <point x="174" y="-106"></point>
      <point x="201" y="-94"></point>
      <point x="208" y="-58" type="curve" smooth="yes"></point>
      <point x="212" y="-36"></point>
      <point x="212" y="-27"></point>
      <point x="212" y="0" type="curve"></point>
      <point x="134" y="0" type="line" smooth="yes"></point>
      <point x="128" y="0"></point>
      <point x="120" y="8"></point>
      <point x="120" y="14" type="curve" smooth="yes"></point>
      <point x="120" y="164" type="line" smooth="yes"></point>
      <point x="120" y="170"></point>
      <point x="128" y="178"></point>
      <point x="134" y="178" type="curve" smooth="yes"></point>
      <point x="355" y="178" type="line" smooth="yes"></point>
      <point x="362" y="178"></point>
      <point x="370" y="171"></point>
      <point x="371" y="164" type="curve" smooth="yes"></point>
      <point x="378" y="119"></point>
      <point x="380" y="79"></point>
      <point x="380" y="43" type="curve" smooth="yes"></point>
      <point x="380" y="-132"></point>
      <point x="303" y="-214"></point>
      <point x="133" y="-219" type="curve" smooth="yes"></point>
      <point x="127" y="-219"></point>
      <point x="119" y="-211"></point>
    </contour>
  </outline>
</glyph>
<glyph name="less" format="1">
  <advance width="560"></advance>
  <unicode hex="003C"></unicode>
  <outline>
    <contour>
      <point x="452" y="184" type="curve" smooth="yes"></point>
      <point x="452" y="23" type="line" smooth="yes"></point>
      <point x="452" y="14"></point>
      <point x="444" y="8"></point>
      <point x="436" y="8" type="curve" smooth="yes"></point>
      <point x="433" y="8"></point>
      <point x="429" y="8"></point>
      <point x="426" y="11" type="curve" smooth="yes"></point>
      <point x="129" y="260" type="line" smooth="yes"></point>
      <point x="113" y="273"></point>
      <point x="103" y="294"></point>
      <point x="103" y="314" type="curve" smooth="yes"></point>
      <point x="103" y="429" type="line" smooth="yes"></point>
      <point x="103" y="449"></point>
      <point x="113" y="470"></point>
      <point x="129" y="483" type="curve" smooth="yes"></point>
      <point x="426" y="732" type="line" smooth="yes"></point>
      <point x="429" y="735"></point>
      <point x="433" y="735"></point>
      <point x="436" y="735" type="curve" smooth="yes"></point>
      <point x="444" y="735"></point>
      <point x="452" y="729"></point>
      <point x="452" y="720" type="curve" smooth="yes"></point>
      <point x="452" y="559" type="line" smooth="yes"></point>
      <point x="452" y="539"></point>
      <point x="443" y="517"></point>
      <point x="428" y="503" type="curve" smooth="yes"></point>
      <point x="290" y="372" type="line"></point>
      <point x="428" y="240" type="line" smooth="yes"></point>
      <point x="443" y="226"></point>
      <point x="452" y="204"></point>
    </contour>
  </outline>
</glyph>
<glyph name="equal" format="1">
  <advance width="576"></advance>
  <unicode hex="003D"></unicode>
  <outline>
    <contour>
      <point x="429" y="428" type="curve" smooth="yes"></point>
      <point x="142" y="428" type="line" smooth="yes"></point>
      <point x="124" y="428"></point>
      <point x="109" y="443"></point>
      <point x="109" y="461" type="curve" smooth="yes"></point>
      <point x="109" y="529" type="line" smooth="yes"></point>
      <point x="109" y="547"></point>
      <point x="124" y="562"></point>
      <point x="142" y="562" type="curve" smooth="yes"></point>
      <point x="429" y="562" type="line" smooth="yes"></point>
      <point x="447" y="562"></point>
      <point x="462" y="547"></point>
      <point x="462" y="529" type="curve" smooth="yes"></point>
      <point x="462" y="461" type="line" smooth="yes"></point>
      <point x="462" y="443"></point>
      <point x="447" y="428"></point>
    </contour>
    <contour>
      <point x="429" y="199" type="curve" smooth="yes"></point>
      <point x="142" y="199" type="line" smooth="yes"></point>
      <point x="124" y="199"></point>
      <point x="109" y="214"></point>
      <point x="109" y="232" type="curve" smooth="yes"></point>
      <point x="109" y="305" type="line" smooth="yes"></point>
      <point x="109" y="323"></point>
      <point x="124" y="338"></point>
      <point x="142" y="338" type="curve" smooth="yes"></point>
      <point x="429" y="338" type="line" smooth="yes"></point>
      <point x="447" y="338"></point>
      <point x="462" y="323"></point>
      <point x="462" y="305" type="curve" smooth="yes"></point>
      <point x="462" y="232" type="line" smooth="yes"></point>
      <point x="462" y="214"></point>
      <point x="447" y="199"></point>
    </contour>
  </outline>
</glyph>
<glyph name="greater" format="1">
  <advance width="560"></advance>
  <unicode hex="003E"></unicode>
  <outline>
    <contour>
      <point x="426" y="260" type="curve" smooth="yes"></point>
      <point x="129" y="11" type="line" smooth="yes"></point>
      <point x="126" y="8"></point>
      <point x="122" y="8"></point>
      <point x="119" y="8" type="curve" smooth="yes"></point>
      <point x="111" y="8"></point>
      <point x="103" y="14"></point>
      <point x="103" y="23" type="curve" smooth="yes"></point>
      <point x="103" y="184" type="line" smooth="yes"></point>
      <point x="103" y="204"></point>
      <point x="112" y="226"></point>
      <point x="127" y="240" type="curve" smooth="yes"></point>
      <point x="265" y="372" type="line"></point>
      <point x="127" y="503" type="line" smooth="yes"></point>
      <point x="112" y="517"></point>
      <point x="103" y="539"></point>
      <point x="103" y="559" type="curve" smooth="yes"></point>
      <point x="103" y="720" type="line" smooth="yes"></point>
      <point x="103" y="729"></point>
      <point x="111" y="735"></point>
      <point x="119" y="735" type="curve" smooth="yes"></point>
      <point x="122" y="735"></point>
      <point x="126" y="735"></point>
      <point x="129" y="732" type="curve" smooth="yes"></point>
      <point x="426" y="483" type="line" smooth="yes"></point>
      <point x="442" y="470"></point>
      <point x="452" y="449"></point>
      <point x="452" y="429" type="curve" smooth="yes"></point>
      <point x="452" y="314" type="line" smooth="yes"></point>
      <point x="452" y="294"></point>
      <point x="442" y="273"></point>
    </contour>
  </outline>
</glyph>
<glyph name="question" format="1">
  <advance width="624"></advance>
  <unicode hex="003F"></unicode>
  <outline>
    <contour>
      <point x="287" y="263" type="curve" smooth="yes"></point>
      <point x="185" y="263" type="line" smooth="yes"></point>
      <point x="167" y="263"></point>
      <point x="152" y="278"></point>
      <point x="152" y="296" type="curve" smooth="yes"></point>
      <point x="152" y="401" type="line" smooth="yes"></point>
      <point x="152" y="422"></point>
      <point x="163" y="441"></point>
      <point x="182" y="450" type="curve" smooth="yes"></point>
      <point x="291" y="503"></point>
      <point x="346" y="557"></point>
      <point x="346" y="610" type="curve" smooth="yes"></point>
      <point x="346" y="630"></point>
      <point x="339" y="674"></point>
      <point x="299" y="674" type="curve" smooth="yes"></point>
      <point x="269" y="674"></point>
      <point x="249" y="659"></point>
      <point x="240" y="628" type="curve" smooth="yes"></point>
      <point x="233" y="605"></point>
      <point x="220" y="595"></point>
      <point x="196" y="595" type="curve" smooth="yes"></point>
      <point x="36" y="595" type="line" smooth="yes"></point>
      <point x="21" y="595"></point>
      <point x="8" y="609"></point>
      <point x="8" y="624" type="curve" smooth="yes"></point>
      <point x="8" y="628" type="line"></point>
      <point x="30" y="756"></point>
      <point x="148" y="848"></point>
      <point x="302" y="848" type="curve" smooth="yes"></point>
      <point x="467" y="848"></point>
      <point x="596" y="751"></point>
      <point x="596" y="622" type="curve" smooth="yes"></point>
      <point x="596" y="490"></point>
      <point x="494" y="419"></point>
      <point x="374" y="374" type="curve" smooth="yes"></point>
      <point x="321" y="354" type="line"></point>
      <point x="321" y="296" type="line" smooth="yes"></point>
      <point x="321" y="278"></point>
      <point x="306" y="263"></point>
    </contour>
    <contour>
      <point x="379" y="110" type="curve" smooth="yes"></point>
      <point x="379" y="34"></point>
      <point x="321" y="-11"></point>
      <point x="239" y="-13" type="curve"></point>
      <point x="161" y="-13"></point>
      <point x="103" y="34"></point>
      <point x="103" y="110" type="curve" smooth="yes"></point>
      <point x="103" y="184"></point>
      <point x="159" y="229"></point>
      <point x="239" y="229" type="curve" smooth="yes"></point>
      <point x="323" y="229"></point>
      <point x="379" y="184"></point>
    </contour>
  </outline>
</glyph>
<glyph name="at" format="1">
  <advance width="976"></advance>
  <unicode hex="0040"></unicode>
  <outline>
    <contour>
      <point x="475" y="300" type="curve" smooth="yes"></point>
      <point x="481" y="279"></point>
      <point x="490" y="271"></point>
      <point x="502" y="271" type="curve" smooth="yes"></point>
      <point x="520" y="271"></point>
      <point x="534" y="277"></point>
      <point x="544" y="289" type="curve"></point>
      <point x="544" y="429" type="line" smooth="yes"></point>
      <point x="544" y="458"></point>
      <point x="541" y="478"></point>
      <point x="535" y="489" type="curve" smooth="yes"></point>
      <point x="530" y="500"></point>
      <point x="520" y="506"></point>
      <point x="506" y="506" type="curve" smooth="yes"></point>
      <point x="498" y="506"></point>
      <point x="489" y="503"></point>
      <point x="484" y="496" type="curve" smooth="yes"></point>
      <point x="479" y="490"></point>
      <point x="475" y="480"></point>
      <point x="473" y="467" type="curve" smooth="yes"></point>
      <point x="471" y="454"></point>
      <point x="468" y="441"></point>
      <point x="467" y="428" type="curve" smooth="yes"></point>
      <point x="466" y="415"></point>
      <point x="466" y="399"></point>
      <point x="466" y="382" type="curve" smooth="yes"></point>
      <point x="466" y="372" type="line" smooth="yes"></point>
      <point x="466" y="343"></point>
      <point x="470" y="319"></point>
    </contour>
    <contour>
      <point x="596" y="-26" type="curve" smooth="yes"></point>
      <point x="571" y="-32"></point>
      <point x="547" y="-34"></point>
      <point x="522" y="-34" type="curve" smooth="yes"></point>
      <point x="447" y="-34"></point>
      <point x="380" y="-24"></point>
      <point x="318" y="-2" type="curve" smooth="yes"></point>
      <point x="256" y="19"></point>
      <point x="207" y="49"></point>
      <point x="167" y="86" type="curve" smooth="yes"></point>
      <point x="127" y="123"></point>
      <point x="97" y="166"></point>
      <point x="76" y="215" type="curve" smooth="yes"></point>
      <point x="54" y="264"></point>
      <point x="44" y="317"></point>
      <point x="44" y="373" type="curve" smooth="yes"></point>
      <point x="44" y="432"></point>
      <point x="53" y="488"></point>
      <point x="74" y="539" type="curve" smooth="yes"></point>
      <point x="94" y="590"></point>
      <point x="123" y="636"></point>
      <point x="161" y="675" type="curve" smooth="yes"></point>
      <point x="199" y="715"></point>
      <point x="247" y="745"></point>
      <point x="305" y="768" type="curve" smooth="yes"></point>
      <point x="362" y="791"></point>
      <point x="426" y="802"></point>
      <point x="496" y="802" type="curve" smooth="yes"></point>
      <point x="562" y="802"></point>
      <point x="623" y="793"></point>
      <point x="677" y="774" type="curve" smooth="yes"></point>
      <point x="731" y="754"></point>
      <point x="777" y="728"></point>
      <point x="813" y="694" type="curve" smooth="yes"></point>
      <point x="848" y="660"></point>
      <point x="876" y="621"></point>
      <point x="896" y="576" type="curve" smooth="yes"></point>
      <point x="915" y="531"></point>
      <point x="925" y="483"></point>
      <point x="925" y="432" type="curve" smooth="yes"></point>
      <point x="925" y="395"></point>
      <point x="920" y="361"></point>
      <point x="909" y="332" type="curve" smooth="yes"></point>
      <point x="898" y="302"></point>
      <point x="881" y="275"></point>
      <point x="859" y="252" type="curve" smooth="yes"></point>
      <point x="836" y="229"></point>
      <point x="806" y="212"></point>
      <point x="768" y="200" type="curve" smooth="yes"></point>
      <point x="730" y="188"></point>
      <point x="686" y="181"></point>
      <point x="636" y="181" type="curve" smooth="yes"></point>
      <point x="595" y="181" type="line" smooth="yes"></point>
      <point x="574" y="181"></point>
      <point x="556" y="194"></point>
      <point x="548" y="215" type="curve" smooth="yes"></point>
      <point x="542" y="229" type="line"></point>
      <point x="530" y="212"></point>
      <point x="515" y="197"></point>
      <point x="494" y="188" type="curve"></point>
      <point x="474" y="178"></point>
      <point x="455" y="173"></point>
      <point x="436" y="173" type="curve" smooth="yes"></point>
      <point x="396" y="173"></point>
      <point x="362" y="193"></point>
      <point x="334" y="232" type="curve"></point>
      <point x="307" y="272"></point>
      <point x="292" y="323"></point>
      <point x="292" y="386" type="curve" smooth="yes"></point>
      <point x="292" y="413"></point>
      <point x="296" y="439"></point>
      <point x="305" y="462" type="curve" smooth="yes"></point>
      <point x="313" y="484"></point>
      <point x="324" y="506"></point>
      <point x="341" y="526" type="curve" smooth="yes"></point>
      <point x="357" y="546"></point>
      <point x="380" y="560"></point>
      <point x="407" y="571" type="curve" smooth="yes"></point>
      <point x="435" y="582"></point>
      <point x="468" y="587"></point>
      <point x="505" y="587" type="curve" smooth="yes"></point>
      <point x="514" y="587"></point>
      <point x="523" y="586"></point>
      <point x="530" y="586" type="curve" smooth="yes"></point>
      <point x="538" y="586"></point>
      <point x="549" y="584"></point>
      <point x="563" y="582" type="curve" smooth="yes"></point>
      <point x="578" y="579"></point>
      <point x="591" y="575"></point>
      <point x="602" y="571" type="curve" smooth="yes"></point>
      <point x="613" y="566"></point>
      <point x="625" y="559"></point>
      <point x="638" y="549" type="curve" smooth="yes"></point>
      <point x="651" y="539"></point>
      <point x="662" y="528"></point>
      <point x="670" y="515" type="curve" smooth="yes"></point>
      <point x="678" y="502"></point>
      <point x="685" y="486"></point>
      <point x="691" y="465" type="curve" smooth="yes"></point>
      <point x="698" y="444"></point>
      <point x="701" y="420"></point>
      <point x="701" y="394" type="curve" smooth="yes"></point>
      <point x="703" y="285" type="line"></point>
      <point x="712" y="284"></point>
      <point x="719" y="285"></point>
      <point x="725" y="286" type="curve" smooth="yes"></point>
      <point x="731" y="287"></point>
      <point x="740" y="292"></point>
      <point x="747" y="298" type="curve" smooth="yes"></point>
      <point x="754" y="303"></point>
      <point x="760" y="312"></point>
      <point x="765" y="322" type="curve" smooth="yes"></point>
      <point x="770" y="332"></point>
      <point x="775" y="346"></point>
      <point x="778" y="365" type="curve" smooth="yes"></point>
      <point x="781" y="385"></point>
      <point x="783" y="407"></point>
      <point x="783" y="433" type="curve" smooth="yes"></point>
      <point x="783" y="504"></point>
      <point x="759" y="561"></point>
      <point x="711" y="603" type="curve" smooth="yes"></point>
      <point x="663" y="646"></point>
      <point x="591" y="667"></point>
      <point x="498" y="667" type="curve" smooth="yes"></point>
      <point x="403" y="667"></point>
      <point x="329" y="641"></point>
      <point x="278" y="588" type="curve" smooth="yes"></point>
      <point x="227" y="536"></point>
      <point x="201" y="464"></point>
      <point x="201" y="374" type="curve" smooth="yes"></point>
      <point x="201" y="335"></point>
      <point x="208" y="298"></point>
      <point x="222" y="264" type="curve" smooth="yes"></point>
      <point x="235" y="230"></point>
      <point x="256" y="200"></point>
      <point x="282" y="174" type="curve" smooth="yes"></point>
      <point x="308" y="149"></point>
      <point x="342" y="129"></point>
      <point x="383" y="113" type="curve" smooth="yes"></point>
      <point x="424" y="98"></point>
      <point x="470" y="92"></point>
      <point x="522" y="92" type="curve" smooth="yes"></point>
      <point x="539" y="92"></point>
      <point x="555" y="93"></point>
      <point x="570" y="95" type="curve"></point>
      <point x="576" y="95" type="line" smooth="yes"></point>
      <point x="594" y="95"></point>
      <point x="608" y="84"></point>
      <point x="612" y="64" type="curve" smooth="yes"></point>
      <point x="623" y="15" type="line" smooth="yes"></point>
      <point x="623" y="13"></point>
      <point x="624" y="11"></point>
      <point x="624" y="9" type="curve" smooth="yes"></point>
      <point x="624" y="-7"></point>
      <point x="611" y="-23"></point>
    </contour>
  </outline>
</glyph>
<glyph name="A" format="1">
  <advance width="864"></advance>
  <unicode hex="0041"></unicode>
  <outline>
    <contour>
      <point x="369" y="611" type="line"></point>
      <point x="293" y="373" type="line"></point>
      <point x="439" y="373" type="line"></point>
    </contour>
    <contour>
      <point x="311" y="0" type="curve" smooth="yes"></point>
      <point x="0" y="0" type="line" smooth="yes"></point>
      <point x="-17" y="0"></point>
      <point x="-32" y="15"></point>
      <point x="-32" y="33" type="curve" smooth="yes"></point>
      <point x="-32" y="114" type="line" smooth="yes"></point>
      <point x="-32" y="132"></point>
      <point x="-17" y="147"></point>
      <point x="0" y="147" type="curve" smooth="yes"></point>
      <point x="79" y="147" type="line"></point>
      <point x="231" y="625" type="line"></point>
      <point x="144" y="625" type="line" smooth="yes"></point>
      <point x="126" y="625"></point>
      <point x="111" y="640"></point>
      <point x="111" y="658" type="curve" smooth="yes"></point>
      <point x="111" y="744" type="line" smooth="yes"></point>
      <point x="111" y="762"></point>
      <point x="126" y="777"></point>
      <point x="144" y="777" type="curve" smooth="yes"></point>
      <point x="561" y="777" type="line" smooth="yes"></point>
      <point x="581" y="777"></point>
      <point x="598" y="764"></point>
      <point x="604" y="745" type="curve" smooth="yes"></point>
      <point x="781" y="147" type="line"></point>
      <point x="850" y="147" type="line" smooth="yes"></point>
      <point x="868" y="147"></point>
      <point x="883" y="132"></point>
      <point x="883" y="114" type="curve" smooth="yes"></point>
      <point x="883" y="33" type="line" smooth="yes"></point>
      <point x="883" y="15"></point>
      <point x="868" y="0"></point>
      <point x="850" y="0" type="curve" smooth="yes"></point>
      <point x="441" y="0" type="line" smooth="yes"></point>
      <point x="423" y="0"></point>
      <point x="407" y="15"></point>
      <point x="407" y="33" type="curve" smooth="yes"></point>
      <point x="407" y="114" type="line" smooth="yes"></point>
      <point x="407" y="132"></point>
      <point x="423" y="147"></point>
      <point x="441" y="147" type="curve" smooth="yes"></point>
      <point x="489" y="147" type="line"></point>
      <point x="463" y="255" type="line"></point>
      <point x="269" y="255" type="line"></point>
      <point x="239" y="147" type="line"></point>
      <point x="311" y="147" type="line" smooth="yes"></point>
      <point x="329" y="147"></point>
      <point x="345" y="132"></point>
      <point x="345" y="114" type="curve" smooth="yes"></point>
      <point x="345" y="33" type="line" smooth="yes"></point>
      <point x="345" y="15"></point>
      <point x="329" y="0"></point>
    </contour>
  </outline>
</glyph>
<glyph name="B" format="1">
  <advance width="800"></advance>
  <unicode hex="0042"></unicode>
  <outline>
    <contour>
      <point x="369" y="342" type="line"></point>
      <point x="369" y="152" type="line"></point>
      <point x="392" y="152" type="line" smooth="yes"></point>
      <point x="457" y="152"></point>
      <point x="514" y="170"></point>
      <point x="514" y="248" type="curve" smooth="yes"></point>
      <point x="514" y="306"></point>
      <point x="473" y="342"></point>
      <point x="412" y="342" type="curve" smooth="yes"></point>
    </contour>
    <contour>
      <point x="437" y="625" type="curve" smooth="yes"></point>
      <point x="369" y="625" type="line"></point>
      <point x="369" y="459" type="line"></point>
      <point x="396" y="459" type="line" smooth="yes"></point>
      <point x="463" y="459"></point>
      <point x="505" y="481"></point>
      <point x="505" y="542" type="curve" smooth="yes"></point>
      <point x="505" y="583"></point>
      <point x="476" y="625"></point>
    </contour>
    <contour>
      <point x="253" y="0" type="line"></point>
      <point x="44" y="0" type="line" smooth="yes"></point>
      <point x="26" y="0"></point>
      <point x="11" y="15"></point>
      <point x="11" y="33" type="curve" smooth="yes"></point>
      <point x="11" y="119" type="line" smooth="yes"></point>
      <point x="11" y="137"></point>
      <point x="26" y="152"></point>
      <point x="44" y="152" type="curve" smooth="yes"></point>
      <point x="119" y="152" type="line"></point>
      <point x="119" y="625" type="line"></point>
      <point x="44" y="625" type="line" smooth="yes"></point>
      <point x="26" y="625"></point>
      <point x="11" y="640"></point>
      <point x="11" y="658" type="curve" smooth="yes"></point>
      <point x="11" y="744" type="line" smooth="yes"></point>
      <point x="11" y="762"></point>
      <point x="26" y="777"></point>
      <point x="44" y="777" type="curve" smooth="yes"></point>
      <point x="253" y="777" type="line"></point>
      <point x="442" y="777" type="line"></point>
      <point x="450" y="777" type="line" smooth="yes"></point>
      <point x="624" y="777"></point>
      <point x="746" y="746"></point>
      <point x="746" y="573" type="curve" smooth="yes"></point>
      <point x="746" y="491"></point>
      <point x="691" y="433"></point>
      <point x="626" y="410" type="curve"></point>
      <point x="712" y="373"></point>
      <point x="759" y="320"></point>
      <point x="759" y="207" type="curve" smooth="yes"></point>
      <point x="759" y="74"></point>
      <point x="650" y="0"></point>
      <point x="462" y="0" type="curve" smooth="yes"></point>
      <point x="442" y="0" type="line"></point>
    </contour>
  </outline>
</glyph>
<glyph name="C" format="1">
  <advance width="784"></advance>
  <unicode hex="0043"></unicode>
  <outline>
    <contour>
      <point x="684" y="34" type="curve" smooth="yes"></point>
      <point x="602" y="-5"></point>
      <point x="515" y="-14"></point>
      <point x="435" y="-14" type="curve" smooth="yes"></point>
      <point x="226" y="-14"></point>
      <point x="41" y="116"></point>
      <point x="41" y="393" type="curve" smooth="yes"></point>
      <point x="41" y="612"></point>
      <point x="161" y="792"></point>
      <point x="390" y="792" type="curve" smooth="yes"></point>
      <point x="469" y="792"></point>
      <point x="532" y="750"></point>
      <point x="557" y="698" type="curve"></point>
      <point x="569" y="745" type="line" smooth="yes"></point>
      <point x="574" y="764"></point>
      <point x="591" y="777"></point>
      <point x="610" y="777" type="curve" smooth="yes"></point>
      <point x="696" y="777" type="line" smooth="yes"></point>
      <point x="714" y="777"></point>
      <point x="729" y="762"></point>
      <point x="729" y="744" type="curve" smooth="yes"></point>
      <point x="729" y="491" type="line" smooth="yes"></point>
      <point x="729" y="473"></point>
      <point x="714" y="458"></point>
      <point x="696" y="458" type="curve" smooth="yes"></point>
      <point x="579" y="458" type="line" smooth="yes"></point>
      <point x="575" y="458"></point>
      <point x="572" y="461"></point>
      <point x="572" y="465" type="curve" smooth="yes"></point>
      <point x="572" y="474" type="line" smooth="yes"></point>
      <point x="572" y="551"></point>
      <point x="538" y="615"></point>
      <point x="460" y="615" type="curve" smooth="yes"></point>
      <point x="382" y="615"></point>
      <point x="322" y="514"></point>
      <point x="322" y="413" type="curve" smooth="yes"></point>
      <point x="322" y="281"></point>
      <point x="393" y="204"></point>
      <point x="506" y="204" type="curve" smooth="yes"></point>
      <point x="592" y="204"></point>
      <point x="663" y="241"></point>
      <point x="697" y="264" type="curve" smooth="yes"></point>
      <point x="700" y="266"></point>
      <point x="704" y="265"></point>
      <point x="707" y="263" type="curve" smooth="yes"></point>
      <point x="708" y="262" type="line" smooth="yes"></point>
      <point x="711" y="260"></point>
      <point x="713" y="256"></point>
      <point x="713" y="252" type="curve" smooth="yes"></point>
      <point x="713" y="81" type="line" smooth="yes"></point>
      <point x="713" y="63"></point>
      <point x="700" y="42"></point>
    </contour>
  </outline>
</glyph>
<glyph name="D" format="1">
  <advance width="864"></advance>
  <unicode hex="0044"></unicode>
  <outline>
    <contour>
      <point x="420" y="625" type="curve" smooth="yes"></point>
      <point x="352" y="625" type="line"></point>
      <point x="352" y="152" type="line"></point>
      <point x="420" y="152" type="line" smooth="yes"></point>
      <point x="537" y="152"></point>
      <point x="574" y="277"></point>
      <point x="574" y="389" type="curve" smooth="yes"></point>
      <point x="574" y="504"></point>
      <point x="538" y="625"></point>
    </contour>
    <contour>
      <point x="260" y="0" type="line"></point>
      <point x="27" y="0" type="line" smooth="yes"></point>
      <point x="9" y="0"></point>
      <point x="-5" y="15"></point>
      <point x="-5" y="33" type="curve" smooth="yes"></point>
      <point x="-5" y="119" type="line" smooth="yes"></point>
      <point x="-5" y="137"></point>
      <point x="9" y="152"></point>
      <point x="27" y="152" type="curve" smooth="yes"></point>
      <point x="102" y="152" type="line"></point>
      <point x="102" y="625" type="line"></point>
      <point x="27" y="625" type="line" smooth="yes"></point>
      <point x="9" y="625"></point>
      <point x="-5" y="640"></point>
      <point x="-5" y="658" type="curve" smooth="yes"></point>
      <point x="-5" y="744" type="line" smooth="yes"></point>
      <point x="-5" y="762"></point>
      <point x="9" y="777"></point>
      <point x="27" y="777" type="curve" smooth="yes"></point>
      <point x="260" y="777" type="line"></point>
      <point x="421" y="777" type="line"></point>
      <point x="425" y="777" type="line"></point>
      <point x="426" y="777" type="line"></point>
      <point x="704" y="775"></point>
      <point x="855" y="645"></point>
      <point x="855" y="389" type="curve" smooth="yes"></point>
      <point x="855" y="145"></point>
      <point x="706" y="4"></point>
      <point x="427" y="0" type="curve"></point>
      <point x="425" y="0" type="line"></point>
      <point x="415" y="0" type="line"></point>
    </contour>
  </outline>
</glyph>
<glyph name="E" format="1">
  <advance width="800"></advance>
  <unicode hex="0045"></unicode>
  <outline>
    <contour>
      <point x="487" y="350" type="curve" smooth="yes"></point>
      <point x="375" y="350" type="line"></point>
      <point x="375" y="152" type="line"></point>
      <point x="448" y="152" type="line"></point>
      <point x="545" y="152" type="line"></point>
      <point x="600" y="300" type="line" smooth="yes"></point>
      <point x="607" y="318"></point>
      <point x="625" y="331"></point>
      <point x="645" y="331" type="curve" smooth="yes"></point>
      <point x="694" y="331" type="line" smooth="yes"></point>
      <point x="712" y="331"></point>
      <point x="727" y="316"></point>
      <point x="727" y="298" type="curve" smooth="yes"></point>
      <point x="727" y="33" type="line" smooth="yes"></point>
      <point x="727" y="15"></point>
      <point x="712" y="0"></point>
      <point x="694" y="0" type="curve" smooth="yes"></point>
      <point x="448" y="0" type="line"></point>
      <point x="286" y="0" type="line"></point>
      <point x="50" y="0" type="line" smooth="yes"></point>
      <point x="32" y="0"></point>
      <point x="17" y="15"></point>
      <point x="17" y="33" type="curve" smooth="yes"></point>
      <point x="17" y="119" type="line" smooth="yes"></point>
      <point x="17" y="137"></point>
      <point x="32" y="152"></point>
      <point x="50" y="152" type="curve" smooth="yes"></point>
      <point x="125" y="152" type="line"></point>
      <point x="125" y="625" type="line"></point>
      <point x="50" y="625" type="line" smooth="yes"></point>
      <point x="32" y="625"></point>
      <point x="17" y="640"></point>
      <point x="17" y="658" type="curve" smooth="yes"></point>
      <point x="17" y="744" type="line" smooth="yes"></point>
      <point x="17" y="762"></point>
      <point x="32" y="777"></point>
      <point x="50" y="777" type="curve" smooth="yes"></point>
      <point x="286" y="777" type="line"></point>
      <point x="448" y="777" type="line"></point>
      <point x="686" y="777" type="line" smooth="yes"></point>
      <point x="704" y="777"></point>
      <point x="720" y="762"></point>
      <point x="720" y="744" type="curve" smooth="yes"></point>
      <point x="726" y="501" type="line" smooth="yes"></point>
      <point x="726" y="483"></point>
      <point x="712" y="468"></point>
      <point x="694" y="468" type="curve" smooth="yes"></point>
      <point x="645" y="468" type="line" smooth="yes"></point>
      <point x="625" y="468"></point>
      <point x="607" y="481"></point>
      <point x="599" y="499" type="curve" smooth="yes"></point>
      <point x="545" y="625" type="line"></point>
      <point x="448" y="625" type="line"></point>
      <point x="375" y="625" type="line"></point>
      <point x="375" y="478" type="line"></point>
      <point x="487" y="478" type="line" smooth="yes"></point>
      <point x="505" y="478"></point>
      <point x="520" y="463"></point>
      <point x="520" y="445" type="curve" smooth="yes"></point>
      <point x="520" y="383" type="line" smooth="yes"></point>
      <point x="520" y="365"></point>
      <point x="505" y="350"></point>
    </contour>
  </outline>
</glyph>
<glyph name="F" format="1">
  <advance width="688"></advance>
  <unicode hex="0046"></unicode>
  <outline>
    <contour>
      <point x="454" y="0" type="curve" smooth="yes"></point>
      <point x="56" y="0" type="line" smooth="yes"></point>
      <point x="38" y="0"></point>
      <point x="23" y="15"></point>
      <point x="23" y="33" type="curve" smooth="yes"></point>
      <point x="23" y="119" type="line" smooth="yes"></point>
      <point x="23" y="137"></point>
      <point x="38" y="152"></point>
      <point x="56" y="152" type="curve" smooth="yes"></point>
      <point x="131" y="152" type="line"></point>
      <point x="131" y="625" type="line"></point>
      <point x="56" y="625" type="line" smooth="yes"></point>
      <point x="38" y="625"></point>
      <point x="23" y="640"></point>
      <point x="23" y="658" type="curve" smooth="yes"></point>
      <point x="23" y="744" type="line" smooth="yes"></point>
      <point x="23" y="762"></point>
      <point x="38" y="777"></point>
      <point x="56" y="777" type="curve" smooth="yes"></point>
      <point x="268" y="777" type="line"></point>
      <point x="454" y="777" type="line"></point>
      <point x="665" y="777" type="line" smooth="yes"></point>
      <point x="683" y="777"></point>
      <point x="698" y="762"></point>
      <point x="698" y="744" type="curve" smooth="yes"></point>
      <point x="698" y="496" type="line" smooth="yes"></point>
      <point x="698" y="478"></point>
      <point x="683" y="463"></point>
      <point x="665" y="463" type="curve" smooth="yes"></point>
      <point x="604" y="463" type="line" smooth="yes"></point>
      <point x="585" y="463"></point>
      <point x="568" y="477"></point>
      <point x="565" y="496" type="curve"></point>
      <point x="526" y="625" type="line"></point>
      <point x="454" y="625" type="line"></point>
      <point x="381" y="625" type="line"></point>
      <point x="381" y="431" type="line"></point>
      <point x="526" y="431" type="line" smooth="yes"></point>
      <point x="544" y="431"></point>
      <point x="559" y="416"></point>
      <point x="559" y="398" type="curve" smooth="yes"></point>
      <point x="559" y="339" type="line" smooth="yes"></point>
      <point x="559" y="321"></point>
      <point x="544" y="306"></point>
      <point x="526" y="306" type="curve" smooth="yes"></point>
      <point x="381" y="306" type="line"></point>
      <point x="381" y="152" type="line"></point>
      <point x="454" y="152" type="line" smooth="yes"></point>
      <point x="472" y="152"></point>
      <point x="487" y="137"></point>
      <point x="487" y="119" type="curve" smooth="yes"></point>
      <point x="487" y="33" type="line" smooth="yes"></point>
      <point x="487" y="15"></point>
      <point x="472" y="0"></point>
    </contour>
  </outline>
</glyph>
<glyph name="G" format="1">
  <advance width="848"></advance>
  <unicode hex="0047"></unicode>
  <outline>
    <contour>
      <point x="765" y="53" type="curve" smooth="yes"></point>
      <point x="672" y="9"></point>
      <point x="565" y="-14"></point>
      <point x="463" y="-14" type="curve" smooth="yes"></point>
      <point x="236" y="-14"></point>
      <point x="29" y="103"></point>
      <point x="29" y="387" type="curve" smooth="yes"></point>
      <point x="29" y="618"></point>
      <point x="171" y="792"></point>
      <point x="415" y="792" type="curve" smooth="yes"></point>
      <point x="508" y="792"></point>
      <point x="582" y="759"></point>
      <point x="616" y="713" type="curve"></point>
      <point x="620" y="744" type="line" smooth="yes"></point>
      <point x="623" y="763"></point>
      <point x="639" y="777"></point>
      <point x="658" y="777" type="curve" smooth="yes"></point>
      <point x="746" y="777" type="line" smooth="yes"></point>
      <point x="764" y="777"></point>
      <point x="779" y="762"></point>
      <point x="779" y="744" type="curve" smooth="yes"></point>
      <point x="779" y="523" type="line" smooth="yes"></point>
      <point x="779" y="505"></point>
      <point x="764" y="490"></point>
      <point x="746" y="490" type="curve" smooth="yes"></point>
      <point x="664" y="490" type="line" smooth="yes"></point>
      <point x="642" y="490"></point>
      <point x="626" y="502"></point>
      <point x="619" y="522" type="curve" smooth="yes"></point>
      <point x="596" y="590"></point>
      <point x="553" y="624"></point>
      <point x="480" y="624" type="curve" smooth="yes"></point>
      <point x="369" y="624"></point>
      <point x="310" y="532"></point>
      <point x="310" y="391" type="curve" smooth="yes"></point>
      <point x="310" y="245"></point>
      <point x="368" y="158"></point>
      <point x="506" y="158" type="curve" smooth="yes"></point>
      <point x="527" y="158"></point>
      <point x="551" y="160"></point>
      <point x="576" y="164" type="curve"></point>
      <point x="576" y="272" type="line"></point>
      <point x="515" y="272" type="line" smooth="yes"></point>
      <point x="497" y="272"></point>
      <point x="482" y="287"></point>
      <point x="482" y="305" type="curve" smooth="yes"></point>
      <point x="482" y="384" type="line" smooth="yes"></point>
      <point x="482" y="402"></point>
      <point x="497" y="417"></point>
      <point x="515" y="417" type="curve" smooth="yes"></point>
      <point x="762" y="417" type="line" smooth="yes"></point>
      <point x="780" y="417"></point>
      <point x="795" y="402"></point>
      <point x="795" y="384" type="curve" smooth="yes"></point>
      <point x="795" y="100" type="line" smooth="yes"></point>
      <point x="795" y="81"></point>
      <point x="782" y="61"></point>
    </contour>
  </outline>
</glyph>
<glyph name="H" format="1">
  <advance width="928"></advance>
  <unicode hex="0048"></unicode>
  <outline>
    <contour>
      <point x="410" y="0" type="curve" smooth="yes"></point>
      <point x="12" y="0" type="line" smooth="yes"></point>
      <point x="-5" y="0"></point>
      <point x="-20" y="15"></point>
      <point x="-20" y="33" type="curve" smooth="yes"></point>
      <point x="-20" y="119" type="line" smooth="yes"></point>
      <point x="-20" y="137"></point>
      <point x="-5" y="152"></point>
      <point x="12" y="152" type="curve" smooth="yes"></point>
      <point x="87" y="152" type="line"></point>
      <point x="87" y="625" type="line"></point>
      <point x="12" y="625" type="line" smooth="yes"></point>
      <point x="-5" y="625"></point>
      <point x="-20" y="640"></point>
      <point x="-20" y="658" type="curve" smooth="yes"></point>
      <point x="-20" y="744" type="line" smooth="yes"></point>
      <point x="-20" y="762"></point>
      <point x="-5" y="777"></point>
      <point x="12" y="777" type="curve" smooth="yes"></point>
      <point x="410" y="777" type="line" smooth="yes"></point>
      <point x="428" y="777"></point>
      <point x="443" y="762"></point>
      <point x="443" y="744" type="curve" smooth="yes"></point>
      <point x="443" y="658" type="line" smooth="yes"></point>
      <point x="443" y="640"></point>
      <point x="428" y="625"></point>
      <point x="410" y="625" type="curve" smooth="yes"></point>
      <point x="337" y="625" type="line"></point>
      <point x="337" y="464" type="line"></point>
      <point x="592" y="464" type="line"></point>
      <point x="592" y="625" type="line"></point>
      <point x="517" y="625" type="line" smooth="yes"></point>
      <point x="499" y="625"></point>
      <point x="484" y="640"></point>
      <point x="484" y="658" type="curve" smooth="yes"></point>
      <point x="484" y="744" type="line" smooth="yes"></point>
      <point x="484" y="762"></point>
      <point x="499" y="777"></point>
      <point x="517" y="777" type="curve" smooth="yes"></point>
      <point x="915" y="777" type="line" smooth="yes"></point>
      <point x="933" y="777"></point>
      <point x="948" y="762"></point>
      <point x="948" y="744" type="curve" smooth="yes"></point>
      <point x="948" y="658" type="line" smooth="yes"></point>
      <point x="948" y="640"></point>
      <point x="933" y="625"></point>
      <point x="915" y="625" type="curve" smooth="yes"></point>
      <point x="842" y="625" type="line"></point>
      <point x="842" y="152" type="line"></point>
      <point x="915" y="152" type="line" smooth="yes"></point>
      <point x="933" y="152"></point>
      <point x="948" y="137"></point>
      <point x="948" y="119" type="curve" smooth="yes"></point>
      <point x="948" y="33" type="line" smooth="yes"></point>
      <point x="948" y="15"></point>
      <point x="933" y="0"></point>
      <point x="915" y="0" type="curve" smooth="yes"></point>
      <point x="517" y="0" type="line" smooth="yes"></point>
      <point x="499" y="0"></point>
      <point x="484" y="15"></point>
      <point x="484" y="33" type="curve" smooth="yes"></point>
      <point x="484" y="119" type="line" smooth="yes"></point>
      <point x="484" y="137"></point>
      <point x="499" y="152"></point>
      <point x="517" y="152" type="curve" smooth="yes"></point>
      <point x="592" y="152" type="line"></point>
      <point x="592" y="320" type="line"></point>
      <point x="337" y="320" type="line"></point>
      <point x="337" y="152" type="line"></point>
      <point x="410" y="152" type="line" smooth="yes"></point>
      <point x="428" y="152"></point>
      <point x="443" y="137"></point>
      <point x="443" y="119" type="curve" smooth="yes"></point>
      <point x="443" y="33" type="line" smooth="yes"></point>
      <point x="443" y="15"></point>
      <point x="428" y="0"></point>
    </contour>
  </outline>
</glyph>
<glyph name="I" format="1">
  <advance width="576"></advance>
  <unicode hex="0049"></unicode>
  <outline>
    <contour>
      <point x="483" y="0" type="curve" smooth="yes"></point>
      <point x="86" y="0" type="line" smooth="yes"></point>
      <point x="68" y="0"></point>
      <point x="53" y="15"></point>
      <point x="53" y="33" type="curve" smooth="yes"></point>
      <point x="53" y="119" type="line" smooth="yes"></point>
      <point x="53" y="137"></point>
      <point x="68" y="152"></point>
      <point x="86" y="152" type="curve" smooth="yes"></point>
      <point x="161" y="152" type="line"></point>
      <point x="161" y="625" type="line"></point>
      <point x="86" y="625" type="line" smooth="yes"></point>
      <point x="68" y="625"></point>
      <point x="53" y="640"></point>
      <point x="53" y="658" type="curve" smooth="yes"></point>
      <point x="53" y="744" type="line" smooth="yes"></point>
      <point x="53" y="762"></point>
      <point x="68" y="777"></point>
      <point x="86" y="777" type="curve" smooth="yes"></point>
      <point x="483" y="777" type="line" smooth="yes"></point>
      <point x="501" y="777"></point>
      <point x="517" y="762"></point>
      <point x="517" y="744" type="curve" smooth="yes"></point>
      <point x="517" y="658" type="line" smooth="yes"></point>
      <point x="517" y="640"></point>
      <point x="501" y="625"></point>
      <point x="483" y="625" type="curve" smooth="yes"></point>
      <point x="411" y="625" type="line"></point>
      <point x="411" y="152" type="line"></point>
      <point x="483" y="152" type="line" smooth="yes"></point>
      <point x="501" y="152"></point>
      <point x="517" y="137"></point>
      <point x="517" y="119" type="curve" smooth="yes"></point>
      <point x="517" y="33" type="line" smooth="yes"></point>
      <point x="517" y="15"></point>
      <point x="501" y="0"></point>
    </contour>
  </outline>
</glyph>
<glyph name="J" format="1">
  <advance width="736"></advance>
  <unicode hex="004A"></unicode>
  <outline>
    <contour>
      <point x="286" y="172" type="curve" smooth="yes"></point>
      <point x="332" y="172"></point>
      <point x="360" y="223"></point>
      <point x="360" y="279" type="curve" smooth="yes"></point>
      <point x="360" y="625" type="line"></point>
      <point x="261" y="625" type="line" smooth="yes"></point>
      <point x="243" y="625"></point>
      <point x="228" y="640"></point>
      <point x="228" y="658" type="curve" smooth="yes"></point>
      <point x="228" y="744" type="line" smooth="yes"></point>
      <point x="228" y="762"></point>
      <point x="243" y="777"></point>
      <point x="261" y="777" type="curve" smooth="yes"></point>
      <point x="683" y="777" type="line" smooth="yes"></point>
      <point x="701" y="777"></point>
      <point x="716" y="762"></point>
      <point x="716" y="744" type="curve" smooth="yes"></point>
      <point x="716" y="658" type="line" smooth="yes"></point>
      <point x="716" y="640"></point>
      <point x="701" y="625"></point>
      <point x="683" y="625" type="curve" smooth="yes"></point>
      <point x="610" y="625" type="line"></point>
      <point x="610" y="237" type="line" smooth="yes"></point>
      <point x="610" y="87"></point>
      <point x="519" y="-10"></point>
      <point x="368" y="-10" type="curve" smooth="yes"></point>
      <point x="303" y="-10"></point>
      <point x="257" y="17"></point>
      <point x="228" y="53" type="curve"></point>
      <point x="221" y="31" type="line" smooth="yes"></point>
      <point x="214" y="12"></point>
      <point x="196" y="-1"></point>
      <point x="177" y="-1" type="curve" smooth="yes"></point>
      <point x="112" y="-1" type="line" smooth="yes"></point>
      <point x="94" y="-1"></point>
      <point x="79" y="14"></point>
      <point x="79" y="32" type="curve" smooth="yes"></point>
      <point x="79" y="276" type="line" smooth="yes"></point>
      <point x="79" y="294"></point>
      <point x="94" y="309"></point>
      <point x="112" y="309" type="curve" smooth="yes"></point>
      <point x="186" y="309" type="line" smooth="yes"></point>
      <point x="205" y="309"></point>
      <point x="220" y="295"></point>
      <point x="221" y="276" type="curve" smooth="yes"></point>
      <point x="223" y="211"></point>
      <point x="236" y="172"></point>
    </contour>
  </outline>
</glyph>
<glyph name="K" format="1">
  <advance width="944"></advance>
  <unicode hex="004B"></unicode>
  <outline>
    <contour>
      <point x="404" y="0" type="curve" smooth="yes"></point>
      <point x="6" y="0" type="line" smooth="yes"></point>
      <point x="-11" y="0"></point>
      <point x="-26" y="15"></point>
      <point x="-26" y="33" type="curve" smooth="yes"></point>
      <point x="-26" y="119" type="line" smooth="yes"></point>
      <point x="-26" y="137"></point>
      <point x="-11" y="152"></point>
      <point x="6" y="152" type="curve" smooth="yes"></point>
      <point x="81" y="152" type="line"></point>
      <point x="81" y="625" type="line"></point>
      <point x="6" y="625" type="line" smooth="yes"></point>
      <point x="-11" y="625"></point>
      <point x="-26" y="640"></point>
      <point x="-26" y="658" type="curve" smooth="yes"></point>
      <point x="-26" y="744" type="line" smooth="yes"></point>
      <point x="-26" y="762"></point>
      <point x="-11" y="777"></point>
      <point x="6" y="777" type="curve" smooth="yes"></point>
      <point x="404" y="777" type="line" smooth="yes"></point>
      <point x="422" y="777"></point>
      <point x="437" y="762"></point>
      <point x="437" y="744" type="curve" smooth="yes"></point>
      <point x="437" y="658" type="line" smooth="yes"></point>
      <point x="437" y="640"></point>
      <point x="422" y="625"></point>
      <point x="404" y="625" type="curve" smooth="yes"></point>
      <point x="331" y="625" type="line"></point>
      <point x="331" y="152" type="line"></point>
      <point x="404" y="152" type="line" smooth="yes"></point>
      <point x="422" y="152"></point>
      <point x="437" y="137"></point>
      <point x="437" y="119" type="curve" smooth="yes"></point>
      <point x="437" y="33" type="line" smooth="yes"></point>
      <point x="437" y="15"></point>
      <point x="422" y="0"></point>
    </contour>
    <contour>
      <point x="922" y="625" type="curve" smooth="yes"></point>
      <point x="822" y="625" type="line"></point>
      <point x="614" y="394" type="line"></point>
      <point x="860" y="153" type="line"></point>
      <point x="943" y="153" type="line" smooth="yes"></point>
      <point x="962" y="153"></point>
      <point x="977" y="138"></point>
      <point x="977" y="120" type="curve" smooth="yes"></point>
      <point x="977" y="34" type="line" smooth="yes"></point>
      <point x="977" y="16"></point>
      <point x="962" y="1"></point>
      <point x="943" y="1" type="curve" smooth="yes"></point>
      <point x="526" y="1" type="line" smooth="yes"></point>
      <point x="507" y="1"></point>
      <point x="492" y="16"></point>
      <point x="492" y="34" type="curve" smooth="yes"></point>
      <point x="492" y="120" type="line" smooth="yes"></point>
      <point x="492" y="138"></point>
      <point x="507" y="153"></point>
      <point x="526" y="153" type="curve" smooth="yes"></point>
      <point x="579" y="153" type="line"></point>
      <point x="430" y="292" type="line" smooth="yes"></point>
      <point x="389" y="330"></point>
      <point x="362" y="356"></point>
      <point x="362" y="384" type="curve" smooth="yes"></point>
      <point x="362" y="395"></point>
      <point x="366" y="407"></point>
      <point x="376" y="420" type="curve" smooth="yes"></point>
      <point x="552" y="625" type="line"></point>
      <point x="524" y="625" type="line" smooth="yes"></point>
      <point x="506" y="625"></point>
      <point x="491" y="640"></point>
      <point x="491" y="658" type="curve" smooth="yes"></point>
      <point x="491" y="744" type="line" smooth="yes"></point>
      <point x="491" y="762"></point>
      <point x="506" y="777"></point>
      <point x="524" y="777" type="curve" smooth="yes"></point>
      <point x="922" y="777" type="line" smooth="yes"></point>
      <point x="940" y="777"></point>
      <point x="955" y="762"></point>
      <point x="955" y="744" type="curve" smooth="yes"></point>
      <point x="955" y="658" type="line" smooth="yes"></point>
      <point x="955" y="640"></point>
      <point x="940" y="625"></point>
    </contour>
  </outline>
</glyph>
<glyph name="L" format="1">
  <advance width="784"></advance>
  <unicode hex="004C"></unicode>
  <outline>
    <contour>
      <point x="666" y="0" type="curve" smooth="yes"></point>
      <point x="448" y="0" type="line"></point>
      <point x="259" y="0" type="line"></point>
      <point x="50" y="0" type="line" smooth="yes"></point>
      <point x="32" y="0"></point>
      <point x="17" y="15"></point>
      <point x="17" y="33" type="curve" smooth="yes"></point>
      <point x="17" y="119" type="line" smooth="yes"></point>
      <point x="17" y="137"></point>
      <point x="32" y="152"></point>
      <point x="50" y="152" type="curve" smooth="yes"></point>
      <point x="125" y="152" type="line"></point>
      <point x="125" y="625" type="line"></point>
      <point x="50" y="625" type="line" smooth="yes"></point>
      <point x="32" y="625"></point>
      <point x="17" y="640"></point>
      <point x="17" y="658" type="curve" smooth="yes"></point>
      <point x="17" y="744" type="line" smooth="yes"></point>
      <point x="17" y="762"></point>
      <point x="32" y="777"></point>
      <point x="50" y="777" type="curve" smooth="yes"></point>
      <point x="448" y="777" type="line" smooth="yes"></point>
      <point x="466" y="777"></point>
      <point x="481" y="762"></point>
      <point x="481" y="744" type="curve" smooth="yes"></point>
      <point x="481" y="658" type="line" smooth="yes"></point>
      <point x="481" y="640"></point>
      <point x="466" y="625"></point>
      <point x="448" y="625" type="curve" smooth="yes"></point>
      <point x="375" y="625" type="line"></point>
      <point x="375" y="152" type="line"></point>
      <point x="448" y="152" type="line"></point>
      <point x="527" y="152" type="line"></point>
      <point x="584" y="314" type="line"></point>
      <point x="589" y="332"></point>
      <point x="606" y="346"></point>
      <point x="625" y="346" type="curve" smooth="yes"></point>
      <point x="684" y="346" type="line" smooth="yes"></point>
      <point x="702" y="346"></point>
      <point x="717" y="331"></point>
      <point x="717" y="313" type="curve"></point>
      <point x="699" y="33" type="line"></point>
      <point x="699" y="15"></point>
      <point x="684" y="0"></point>
    </contour>
  </outline>
</glyph>
<glyph name="M" format="1">
  <advance width="1072"></advance>
  <unicode hex="004D"></unicode>
  <outline>
    <contour>
      <point x="290" y="0" type="curve" smooth="yes"></point>
      <point x="18" y="0" type="line" smooth="yes"></point>
      <point x="0" y="0"></point>
      <point x="-14" y="15"></point>
      <point x="-14" y="33" type="curve" smooth="yes"></point>
      <point x="-14" y="108" type="line" smooth="yes"></point>
      <point x="-14" y="126"></point>
      <point x="0" y="141"></point>
      <point x="18" y="141" type="curve" smooth="yes"></point>
      <point x="89" y="141" type="line"></point>
      <point x="89" y="625" type="line"></point>
      <point x="18" y="625" type="line" smooth="yes"></point>
      <point x="0" y="625"></point>
      <point x="-14" y="640"></point>
      <point x="-14" y="658" type="curve" smooth="yes"></point>
      <point x="-14" y="744" type="line" smooth="yes"></point>
      <point x="-14" y="762"></point>
      <point x="0" y="777"></point>
      <point x="18" y="777" type="curve" smooth="yes"></point>
      <point x="358" y="777" type="line" smooth="yes"></point>
      <point x="378" y="777"></point>
      <point x="396" y="765"></point>
      <point x="404" y="746" type="curve"></point>
      <point x="584" y="384" type="line"></point>
      <point x="731" y="746" type="line" smooth="yes"></point>
      <point x="738" y="764"></point>
      <point x="756" y="777"></point>
      <point x="776" y="777" type="curve" smooth="yes"></point>
      <point x="1082" y="777" type="line" smooth="yes"></point>
      <point x="1100" y="777"></point>
      <point x="1115" y="762"></point>
      <point x="1115" y="744" type="curve" smooth="yes"></point>
      <point x="1115" y="658" type="line" smooth="yes"></point>
      <point x="1115" y="640"></point>
      <point x="1100" y="625"></point>
      <point x="1082" y="625" type="curve" smooth="yes"></point>
      <point x="1011" y="625" type="line"></point>
      <point x="1011" y="141" type="line"></point>
      <point x="1082" y="141" type="line" smooth="yes"></point>
      <point x="1100" y="141"></point>
      <point x="1115" y="126"></point>
      <point x="1115" y="108" type="curve" smooth="yes"></point>
      <point x="1115" y="33" type="line" smooth="yes"></point>
      <point x="1115" y="15"></point>
      <point x="1100" y="0"></point>
      <point x="1082" y="0" type="curve" smooth="yes"></point>
      <point x="731" y="0" type="line" smooth="yes"></point>
      <point x="713" y="0"></point>
      <point x="698" y="15"></point>
      <point x="698" y="33" type="curve" smooth="yes"></point>
      <point x="698" y="108" type="line" smooth="yes"></point>
      <point x="698" y="126"></point>
      <point x="713" y="141"></point>
      <point x="731" y="141" type="curve" smooth="yes"></point>
      <point x="780" y="141" type="line"></point>
      <point x="780" y="506" type="line"></point>
      <point x="595" y="77" type="line" smooth="yes"></point>
      <point x="588" y="59"></point>
      <point x="569" y="46"></point>
      <point x="550" y="46" type="curve" smooth="yes"></point>
      <point x="485" y="46" type="line" smooth="yes"></point>
      <point x="465" y="46"></point>
      <point x="447" y="58"></point>
      <point x="439" y="76" type="curve" smooth="yes"></point>
      <point x="225" y="517" type="line"></point>
      <point x="225" y="141" type="line"></point>
      <point x="290" y="141" type="line" smooth="yes"></point>
      <point x="308" y="141"></point>
      <point x="323" y="126"></point>
      <point x="323" y="108" type="curve" smooth="yes"></point>
      <point x="323" y="33" type="line" smooth="yes"></point>
      <point x="323" y="15"></point>
      <point x="308" y="0"></point>
    </contour>
  </outline>
</glyph>
<glyph name="N" format="1">
  <advance width="944"></advance>
  <unicode hex="004E"></unicode>
  <outline>
    <contour>
      <point x="309" y="0" type="curve" smooth="yes"></point>
      <point x="30" y="0" type="line" smooth="yes"></point>
      <point x="12" y="0"></point>
      <point x="-2" y="15"></point>
      <point x="-2" y="33" type="curve" smooth="yes"></point>
      <point x="-2" y="107" type="line" smooth="yes"></point>
      <point x="-2" y="125"></point>
      <point x="12" y="140"></point>
      <point x="30" y="140" type="curve" smooth="yes"></point>
      <point x="110" y="140" type="line"></point>
      <point x="110" y="625" type="line"></point>
      <point x="33" y="625" type="line" smooth="yes"></point>
      <point x="15" y="625"></point>
      <point x="0" y="640"></point>
      <point x="0" y="658" type="curve" smooth="yes"></point>
      <point x="0" y="745" type="line" smooth="yes"></point>
      <point x="0" y="763"></point>
      <point x="15" y="778"></point>
      <point x="33" y="778" type="curve" smooth="yes"></point>
      <point x="335" y="778" type="line" smooth="yes"></point>
      <point x="355" y="778"></point>
      <point x="375" y="767"></point>
      <point x="387" y="751" type="curve" smooth="yes"></point>
      <point x="735" y="267" type="line"></point>
      <point x="735" y="625" type="line"></point>
      <point x="649" y="625" type="line" smooth="yes"></point>
      <point x="631" y="625"></point>
      <point x="616" y="640"></point>
      <point x="616" y="658" type="curve" smooth="yes"></point>
      <point x="616" y="744" type="line" smooth="yes"></point>
      <point x="616" y="762"></point>
      <point x="631" y="777"></point>
      <point x="649" y="777" type="curve" smooth="yes"></point>
      <point x="944" y="777" type="line" smooth="yes"></point>
      <point x="962" y="777"></point>
      <point x="977" y="762"></point>
      <point x="977" y="744" type="curve" smooth="yes"></point>
      <point x="977" y="658" type="line" smooth="yes"></point>
      <point x="977" y="640"></point>
      <point x="962" y="625"></point>
      <point x="944" y="625" type="curve" smooth="yes"></point>
      <point x="857" y="625" type="line"></point>
      <point x="857" y="33" type="line" smooth="yes"></point>
      <point x="857" y="15"></point>
      <point x="842" y="0"></point>
      <point x="824" y="0" type="curve" smooth="yes"></point>
      <point x="627" y="0" type="line" smooth="yes"></point>
      <point x="607" y="0"></point>
      <point x="586" y="11"></point>
      <point x="575" y="28" type="curve" smooth="yes"></point>
      <point x="229" y="536" type="line"></point>
      <point x="229" y="140" type="line"></point>
      <point x="309" y="140" type="line" smooth="yes"></point>
      <point x="327" y="140"></point>
      <point x="342" y="125"></point>
      <point x="342" y="107" type="curve" smooth="yes"></point>
      <point x="342" y="33" type="line" smooth="yes"></point>
      <point x="342" y="15"></point>
      <point x="327" y="0"></point>
    </contour>
  </outline>
</glyph>
<glyph name="O" format="1">
  <advance width="864"></advance>
  <unicode hex="004F"></unicode>
  <outline>
    <contour>
      <point x="292" y="391" type="curve" smooth="yes"></point>
      <point x="292" y="275"></point>
      <point x="332" y="159"></point>
      <point x="429" y="159" type="curve" smooth="yes"></point>
      <point x="526" y="159"></point>
      <point x="566" y="275"></point>
      <point x="566" y="391" type="curve" smooth="yes"></point>
      <point x="566" y="505"></point>
      <point x="528" y="619"></point>
      <point x="429" y="619" type="curve" smooth="yes"></point>
      <point x="330" y="619"></point>
      <point x="292" y="505"></point>
    </contour>
    <contour>
      <point x="14" y="391" type="curve" smooth="yes"></point>
      <point x="14" y="593"></point>
      <point x="146" y="792"></point>
      <point x="429" y="792" type="curve" smooth="yes"></point>
      <point x="712" y="792"></point>
      <point x="844" y="593"></point>
      <point x="844" y="391" type="curve" smooth="yes"></point>
      <point x="844" y="189"></point>
      <point x="712" y="-14"></point>
      <point x="429" y="-14" type="curve" smooth="yes"></point>
      <point x="146" y="-14"></point>
      <point x="14" y="189"></point>
    </contour>
  </outline>
</glyph>
<glyph name="P" format="1">
  <advance width="784"></advance>
  <unicode hex="0050"></unicode>
  <outline>
    <contour>
      <point x="434" y="625" type="curve" smooth="yes"></point>
      <point x="366" y="625" type="line"></point>
      <point x="366" y="420" type="line"></point>
      <point x="403" y="420" type="line" smooth="yes"></point>
      <point x="499" y="420"></point>
      <point x="524" y="480"></point>
      <point x="524" y="545" type="curve" smooth="yes"></point>
      <point x="524" y="594"></point>
      <point x="488" y="625"></point>
    </contour>
    <contour>
      <point x="439" y="0" type="curve" smooth="yes"></point>
      <point x="41" y="0" type="line" smooth="yes"></point>
      <point x="23" y="0"></point>
      <point x="8" y="15"></point>
      <point x="8" y="33" type="curve" smooth="yes"></point>
      <point x="8" y="119" type="line" smooth="yes"></point>
      <point x="8" y="137"></point>
      <point x="23" y="152"></point>
      <point x="41" y="152" type="curve" smooth="yes"></point>
      <point x="116" y="152" type="line"></point>
      <point x="116" y="625" type="line"></point>
      <point x="41" y="625" type="line" smooth="yes"></point>
      <point x="23" y="625"></point>
      <point x="8" y="640"></point>
      <point x="8" y="658" type="curve" smooth="yes"></point>
      <point x="8" y="744" type="line" smooth="yes"></point>
      <point x="8" y="762"></point>
      <point x="23" y="777"></point>
      <point x="41" y="777" type="curve" smooth="yes"></point>
      <point x="252" y="777" type="line"></point>
      <point x="252" y="778" type="line"></point>
      <point x="466" y="778" type="line" smooth="yes"></point>
      <point x="623" y="778"></point>
      <point x="770" y="741"></point>
      <point x="770" y="553" type="curve" smooth="yes"></point>
      <point x="770" y="352"></point>
      <point x="659" y="275"></point>
      <point x="458" y="275" type="curve" smooth="yes"></point>
      <point x="446" y="275" type="line"></point>
      <point x="366" y="276" type="line"></point>
      <point x="366" y="152" type="line"></point>
      <point x="439" y="152" type="line" smooth="yes"></point>
      <point x="457" y="152"></point>
      <point x="472" y="137"></point>
      <point x="472" y="119" type="curve" smooth="yes"></point>
      <point x="472" y="33" type="line" smooth="yes"></point>
      <point x="472" y="15"></point>
      <point x="457" y="0"></point>
    </contour>
  </outline>
</glyph>
<glyph name="Q" format="1">
  <advance width="864"></advance>
  <unicode hex="0051"></unicode>
  <outline>
    <contour>
      <point x="292" y="391" type="curve" smooth="yes"></point>
      <point x="292" y="275"></point>
      <point x="332" y="159"></point>
      <point x="429" y="159" type="curve" smooth="yes"></point>
      <point x="436" y="159"></point>
      <point x="443" y="160"></point>
      <point x="449" y="161" type="curve"></point>
      <point x="404" y="238" type="line" smooth="yes"></point>
      <point x="399" y="245"></point>
      <point x="397" y="252"></point>
      <point x="397" y="259" type="curve" smooth="yes"></point>
      <point x="397" y="268"></point>
      <point x="401" y="276"></point>
      <point x="409" y="283" type="curve" smooth="yes"></point>
      <point x="435" y="304" type="line" smooth="yes"></point>
      <point x="440" y="308"></point>
      <point x="446" y="310"></point>
      <point x="451" y="310" type="curve" smooth="yes"></point>
      <point x="462" y="310"></point>
      <point x="474" y="302"></point>
      <point x="482" y="291" type="curve" smooth="yes"></point>
      <point x="533" y="229" type="line"></point>
      <point x="556" y="273"></point>
      <point x="566" y="332"></point>
      <point x="566" y="391" type="curve" smooth="yes"></point>
      <point x="566" y="505"></point>
      <point x="528" y="619"></point>
      <point x="429" y="619" type="curve" smooth="yes"></point>
      <point x="330" y="619"></point>
      <point x="292" y="505"></point>
    </contour>
    <contour>
      <point x="14" y="391" type="curve" smooth="yes"></point>
      <point x="14" y="593"></point>
      <point x="146" y="792"></point>
      <point x="429" y="792" type="curve" smooth="yes"></point>
      <point x="712" y="792"></point>
      <point x="844" y="593"></point>
      <point x="844" y="391" type="curve" smooth="yes"></point>
      <point x="844" y="261"></point>
      <point x="790" y="132"></point>
      <point x="676" y="55" type="curve"></point>
      <point x="769" y="-59" type="line" smooth="yes"></point>
      <point x="773" y="-65"></point>
      <point x="775" y="-72"></point>
      <point x="775" y="-79" type="curve" smooth="yes"></point>
      <point x="775" y="-90"></point>
      <point x="770" y="-102"></point>
      <point x="760" y="-109" type="curve" smooth="yes"></point>
      <point x="684" y="-162" type="line" smooth="yes"></point>
      <point x="678" y="-167"></point>
      <point x="670" y="-169"></point>
      <point x="663" y="-169" type="curve" smooth="yes"></point>
      <point x="652" y="-169"></point>
      <point x="641" y="-164"></point>
      <point x="634" y="-154" type="curve" smooth="yes"></point>
      <point x="544" y="-1" type="line"></point>
      <point x="509" y="-9"></point>
      <point x="471" y="-14"></point>
      <point x="429" y="-14" type="curve" smooth="yes"></point>
      <point x="146" y="-14"></point>
      <point x="14" y="189"></point>
    </contour>
  </outline>
</glyph>
<glyph name="R" format="1">
  <advance width="880"></advance>
  <unicode hex="0052"></unicode>
  <outline>
    <contour>
      <point x="419" y="0" type="curve" smooth="yes"></point>
      <point x="21" y="0" type="line" smooth="yes"></point>
      <point x="3" y="0"></point>
      <point x="-11" y="15"></point>
      <point x="-11" y="33" type="curve" smooth="yes"></point>
      <point x="-11" y="119" type="line" smooth="yes"></point>
      <point x="-11" y="137"></point>
      <point x="3" y="152"></point>
      <point x="21" y="152" type="curve" smooth="yes"></point>
      <point x="96" y="152" type="line"></point>
      <point x="96" y="625" type="line"></point>
      <point x="21" y="625" type="line" smooth="yes"></point>
      <point x="3" y="625"></point>
      <point x="-11" y="640"></point>
      <point x="-11" y="658" type="curve" smooth="yes"></point>
      <point x="-11" y="744" type="line" smooth="yes"></point>
      <point x="-11" y="762"></point>
      <point x="3" y="777"></point>
      <point x="21" y="777" type="curve" smooth="yes"></point>
      <point x="228" y="777" type="line"></point>
      <point x="419" y="777" type="line"></point>
      <point x="566" y="777" type="line" smooth="yes"></point>
      <point x="726" y="777"></point>
      <point x="830" y="723"></point>
      <point x="830" y="570" type="curve" smooth="yes"></point>
      <point x="830" y="463"></point>
      <point x="739" y="410"></point>
      <point x="642" y="392" type="curve"></point>
      <point x="741" y="376"></point>
      <point x="795" y="315"></point>
      <point x="795" y="238" type="curve" smooth="yes"></point>
      <point x="795" y="152" type="line"></point>
      <point x="864" y="152" type="line" smooth="yes"></point>
      <point x="882" y="152"></point>
      <point x="897" y="137"></point>
      <point x="897" y="119" type="curve" smooth="yes"></point>
      <point x="897" y="33" type="line" smooth="yes"></point>
      <point x="897" y="15"></point>
      <point x="882" y="0"></point>
      <point x="864" y="0" type="curve" smooth="yes"></point>
      <point x="657" y="0" type="line" smooth="yes"></point>
      <point x="535" y="0"></point>
      <point x="514" y="26"></point>
      <point x="514" y="113" type="curve" smooth="yes"></point>
      <point x="514" y="215" type="line" smooth="yes"></point>
      <point x="514" y="289"></point>
      <point x="498" y="334"></point>
      <point x="423" y="334" type="curve" smooth="yes"></point>
      <point x="415" y="334" type="line" smooth="yes"></point>
      <point x="393" y="334"></point>
      <point x="380" y="345"></point>
      <point x="380" y="372" type="curve" smooth="yes"></point>
      <point x="380" y="403" type="line" smooth="yes"></point>
      <point x="380" y="430"></point>
      <point x="392" y="441"></point>
      <point x="415" y="441" type="curve" smooth="yes"></point>
      <point x="462" y="441" type="line" smooth="yes"></point>
      <point x="536" y="441"></point>
      <point x="591" y="479"></point>
      <point x="591" y="536" type="curve" smooth="yes"></point>
      <point x="591" y="594"></point>
      <point x="557" y="625"></point>
      <point x="496" y="625" type="curve" smooth="yes"></point>
      <point x="419" y="625" type="line"></point>
      <point x="346" y="625" type="line"></point>
      <point x="346" y="152" type="line"></point>
      <point x="419" y="152" type="line" smooth="yes"></point>
      <point x="437" y="152"></point>
      <point x="452" y="137"></point>
      <point x="452" y="119" type="curve" smooth="yes"></point>
      <point x="452" y="33" type="line" smooth="yes"></point>
      <point x="452" y="15"></point>
      <point x="437" y="0"></point>
    </contour>
  </outline>
</glyph>
<glyph name="S" format="1">
  <advance width="768"></advance>
  <unicode hex="0053"></unicode>
  <outline>
    <contour>
      <point x="723" y="245" type="curve" smooth="yes"></point>
      <point x="723" y="99"></point>
      <point x="616" y="-14"></point>
      <point x="451" y="-14" type="curve" smooth="yes"></point>
      <point x="358" y="-14"></point>
      <point x="287" y="30"></point>
      <point x="248" y="70" type="curve"></point>
      <point x="239" y="32" type="line" smooth="yes"></point>
      <point x="234" y="13"></point>
      <point x="229" y="0"></point>
      <point x="210" y="0" type="curve" smooth="yes"></point>
      <point x="103" y="0" type="line" smooth="yes"></point>
      <point x="85" y="0"></point>
      <point x="70" y="15"></point>
      <point x="70" y="33" type="curve" smooth="yes"></point>
      <point x="70" y="238" type="line" smooth="yes"></point>
      <point x="70" y="256"></point>
      <point x="85" y="271"></point>
      <point x="103" y="271" type="curve" smooth="yes"></point>
      <point x="192" y="271" type="line" smooth="yes"></point>
      <point x="216" y="271"></point>
      <point x="230" y="261"></point>
      <point x="239" y="239" type="curve" smooth="yes"></point>
      <point x="261" y="185"></point>
      <point x="324" y="139"></point>
      <point x="371" y="130" type="curve" smooth="yes"></point>
      <point x="382" y="128"></point>
      <point x="392" y="127"></point>
      <point x="400" y="127" type="curve" smooth="yes"></point>
      <point x="452" y="127"></point>
      <point x="466" y="161"></point>
      <point x="466" y="195" type="curve" smooth="yes"></point>
      <point x="466" y="244"></point>
      <point x="414" y="260"></point>
      <point x="373" y="274" type="curve" smooth="yes"></point>
      <point x="189" y="337"></point>
      <point x="50" y="359"></point>
      <point x="50" y="553" type="curve" smooth="yes"></point>
      <point x="50" y="716"></point>
      <point x="194" y="793"></point>
      <point x="325" y="793" type="curve" smooth="yes"></point>
      <point x="395" y="793"></point>
      <point x="484" y="762"></point>
      <point x="523" y="720" type="curve"></point>
      <point x="524" y="722"></point>
      <point x="524" y="735"></point>
      <point x="526" y="744" type="curve"></point>
      <point x="531" y="758"></point>
      <point x="533" y="778"></point>
      <point x="548" y="778" type="curve" smooth="yes"></point>
      <point x="649" y="778" type="line" smooth="yes"></point>
      <point x="667" y="778"></point>
      <point x="682" y="763"></point>
      <point x="682" y="745" type="curve" smooth="yes"></point>
      <point x="682" y="562" type="line" smooth="yes"></point>
      <point x="682" y="544"></point>
      <point x="667" y="529"></point>
      <point x="649" y="529" type="curve" smooth="yes"></point>
      <point x="570" y="529" type="line" smooth="yes"></point>
      <point x="545" y="529"></point>
      <point x="531" y="539"></point>
      <point x="522" y="561" type="curve" smooth="yes"></point>
      <point x="499" y="617"></point>
      <point x="422" y="658"></point>
      <point x="376" y="658" type="curve" smooth="yes"></point>
      <point x="330" y="658"></point>
      <point x="289" y="634"></point>
      <point x="289" y="592" type="curve" smooth="yes"></point>
      <point x="289" y="542"></point>
      <point x="346" y="530"></point>
      <point x="404" y="512" type="curve" smooth="yes"></point>
      <point x="581" y="458"></point>
      <point x="723" y="427"></point>
    </contour>
  </outline>
</glyph>
<glyph name="T" format="1">
  <advance width="704"></advance>
  <unicode hex="0054"></unicode>
  <outline>
    <contour>
      <point x="602" y="504" type="curve" smooth="yes"></point>
      <point x="586" y="625" type="line"></point>
      <point x="555" y="625" type="line"></point>
      <point x="482" y="625" type="line"></point>
      <point x="482" y="152" type="line"></point>
      <point x="555" y="152" type="line" smooth="yes"></point>
      <point x="573" y="152"></point>
      <point x="588" y="137"></point>
      <point x="588" y="119" type="curve" smooth="yes"></point>
      <point x="588" y="33" type="line" smooth="yes"></point>
      <point x="588" y="15"></point>
      <point x="573" y="0"></point>
      <point x="555" y="0" type="curve" smooth="yes"></point>
      <point x="157" y="0" type="line" smooth="yes"></point>
      <point x="139" y="0"></point>
      <point x="124" y="15"></point>
      <point x="124" y="33" type="curve" smooth="yes"></point>
      <point x="124" y="119" type="line" smooth="yes"></point>
      <point x="124" y="137"></point>
      <point x="139" y="152"></point>
      <point x="157" y="152" type="curve" smooth="yes"></point>
      <point x="232" y="152" type="line"></point>
      <point x="232" y="625" type="line"></point>
      <point x="157" y="625" type="line"></point>
      <point x="126" y="625" type="line"></point>
      <point x="109" y="504" type="line" smooth="yes"></point>
      <point x="106" y="485"></point>
      <point x="91" y="471"></point>
      <point x="72" y="471" type="curve" smooth="yes"></point>
      <point x="0" y="471" type="line" smooth="yes"></point>
      <point x="-17" y="471"></point>
      <point x="-32" y="486"></point>
      <point x="-32" y="504" type="curve" smooth="yes"></point>
      <point x="-32" y="744" type="line" smooth="yes"></point>
      <point x="-32" y="762"></point>
      <point x="-17" y="777"></point>
      <point x="0" y="777" type="curve" smooth="yes"></point>
      <point x="157" y="777" type="line"></point>
      <point x="555" y="777" type="line"></point>
      <point x="710" y="777" type="line" smooth="yes"></point>
      <point x="728" y="777"></point>
      <point x="743" y="762"></point>
      <point x="743" y="744" type="curve" smooth="yes"></point>
      <point x="743" y="504" type="line" smooth="yes"></point>
      <point x="743" y="486"></point>
      <point x="728" y="471"></point>
      <point x="710" y="471" type="curve" smooth="yes"></point>
      <point x="639" y="471" type="line" smooth="yes"></point>
      <point x="620" y="471"></point>
      <point x="604" y="485"></point>
    </contour>
  </outline>
</glyph>
<glyph name="U" format="1">
  <advance width="816"></advance>
  <unicode hex="0055"></unicode>
  <outline>
    <contour>
      <point x="741" y="254" type="line" smooth="yes"></point>
      <point x="741" y="88"></point>
      <point x="623" y="-14"></point>
      <point x="426" y="-14" type="curve" smooth="yes"></point>
      <point x="201" y="-14"></point>
      <point x="75" y="95"></point>
      <point x="75" y="319" type="curve" smooth="yes"></point>
      <point x="75" y="625" type="line"></point>
      <point x="9" y="625" type="line" smooth="yes"></point>
      <point x="-8" y="625"></point>
      <point x="-23" y="640"></point>
      <point x="-23" y="658" type="curve" smooth="yes"></point>
      <point x="-23" y="744" type="line" smooth="yes"></point>
      <point x="-23" y="762"></point>
      <point x="-8" y="777"></point>
      <point x="9" y="777" type="curve" smooth="yes"></point>
      <point x="397" y="777" type="line" smooth="yes"></point>
      <point x="415" y="777"></point>
      <point x="430" y="762"></point>
      <point x="430" y="744" type="curve" smooth="yes"></point>
      <point x="430" y="658" type="line" smooth="yes"></point>
      <point x="430" y="640"></point>
      <point x="415" y="625"></point>
      <point x="397" y="625" type="curve" smooth="yes"></point>
      <point x="348" y="625" type="line"></point>
      <point x="348" y="277" type="line" smooth="yes"></point>
      <point x="348" y="210"></point>
      <point x="393" y="161"></point>
      <point x="471" y="161" type="curve" smooth="yes"></point>
      <point x="547" y="161"></point>
      <point x="588" y="204"></point>
      <point x="588" y="262" type="curve" smooth="yes"></point>
      <point x="588" y="625" type="line"></point>
      <point x="510" y="625" type="line" smooth="yes"></point>
      <point x="492" y="625"></point>
      <point x="477" y="640"></point>
      <point x="477" y="658" type="curve" smooth="yes"></point>
      <point x="477" y="744" type="line" smooth="yes"></point>
      <point x="477" y="762"></point>
      <point x="492" y="777"></point>
      <point x="510" y="777" type="curve" smooth="yes"></point>
      <point x="793" y="777" type="line" smooth="yes"></point>
      <point x="811" y="777"></point>
      <point x="826" y="762"></point>
      <point x="826" y="744" type="curve" smooth="yes"></point>
      <point x="826" y="658" type="line" smooth="yes"></point>
      <point x="826" y="640"></point>
      <point x="811" y="625"></point>
      <point x="793" y="625" type="curve" smooth="yes"></point>
      <point x="741" y="625" type="line"></point>
    </contour>
  </outline>
</glyph>
<glyph name="V" format="1">
  <advance width="752"></advance>
  <unicode hex="0056"></unicode>
  <outline>
    <contour>
      <point x="503" y="0" type="curve" smooth="yes"></point>
      <point x="263" y="0" type="line" smooth="yes"></point>
      <point x="244" y="0"></point>
      <point x="226" y="13"></point>
      <point x="221" y="32" type="curve"></point>
      <point x="25" y="628" type="line"></point>
      <point x="-40" y="628" type="line" smooth="yes"></point>
      <point x="-58" y="628"></point>
      <point x="-73" y="643"></point>
      <point x="-73" y="661" type="curve" smooth="yes"></point>
      <point x="-73" y="744" type="line" smooth="yes"></point>
      <point x="-73" y="762"></point>
      <point x="-58" y="777"></point>
      <point x="-40" y="777" type="curve" smooth="yes"></point>
      <point x="352" y="777" type="line" smooth="yes"></point>
      <point x="370" y="777"></point>
      <point x="385" y="762"></point>
      <point x="385" y="744" type="curve" smooth="yes"></point>
      <point x="385" y="661" type="line" smooth="yes"></point>
      <point x="385" y="643"></point>
      <point x="370" y="628"></point>
      <point x="352" y="628" type="curve" smooth="yes"></point>
      <point x="310" y="628" type="line"></point>
      <point x="432" y="222" type="line"></point>
      <point x="547" y="628" type="line"></point>
      <point x="497" y="628" type="line" smooth="yes"></point>
      <point x="479" y="628"></point>
      <point x="464" y="643"></point>
      <point x="464" y="661" type="curve" smooth="yes"></point>
      <point x="464" y="744" type="line" smooth="yes"></point>
      <point x="464" y="762"></point>
      <point x="479" y="777"></point>
      <point x="497" y="777" type="curve" smooth="yes"></point>
      <point x="789" y="777" type="line" smooth="yes"></point>
      <point x="807" y="777"></point>
      <point x="822" y="762"></point>
      <point x="822" y="744" type="curve" smooth="yes"></point>
      <point x="822" y="661" type="line" smooth="yes"></point>
      <point x="822" y="643"></point>
      <point x="807" y="628"></point>
      <point x="789" y="628" type="curve" smooth="yes"></point>
      <point x="734" y="628" type="line"></point>
      <point x="546" y="32" type="line" smooth="yes"></point>
      <point x="540" y="13"></point>
      <point x="522" y="0"></point>
    </contour>
  </outline>
</glyph>
<glyph name="W" format="1">
  <advance width="1024"></advance>
  <unicode hex="0057"></unicode>
  <outline>
    <contour>
      <point x="379" y="0" type="curve" smooth="yes"></point>
      <point x="189" y="0" type="line" smooth="yes"></point>
      <point x="170" y="0"></point>
      <point x="152" y="13"></point>
      <point x="147" y="32" type="curve" smooth="yes"></point>
      <point x="-29" y="624" type="line"></point>
      <point x="-102" y="624" type="line" smooth="yes"></point>
      <point x="-120" y="624"></point>
      <point x="-135" y="639"></point>
      <point x="-135" y="657" type="curve" smooth="yes"></point>
      <point x="-135" y="745" type="line" smooth="yes"></point>
      <point x="-135" y="763"></point>
      <point x="-120" y="778"></point>
      <point x="-102" y="778" type="curve" smooth="yes"></point>
      <point x="302" y="778" type="line" smooth="yes"></point>
      <point x="320" y="778"></point>
      <point x="335" y="763"></point>
      <point x="335" y="745" type="curve" smooth="yes"></point>
      <point x="335" y="657" type="line" smooth="yes"></point>
      <point x="335" y="639"></point>
      <point x="320" y="624"></point>
      <point x="302" y="624" type="curve" smooth="yes"></point>
      <point x="251" y="624" type="line"></point>
      <point x="344" y="278" type="line"></point>
      <point x="457" y="746" type="line" smooth="yes"></point>
      <point x="462" y="765"></point>
      <point x="481" y="778"></point>
      <point x="500" y="778" type="curve" smooth="yes"></point>
      <point x="633" y="778" type="line" smooth="yes"></point>
      <point x="652" y="778"></point>
      <point x="670" y="765"></point>
      <point x="675" y="746" type="curve" smooth="yes"></point>
      <point x="799" y="277" type="line"></point>
      <point x="881" y="624" type="line"></point>
      <point x="820" y="624" type="line" smooth="yes"></point>
      <point x="802" y="624"></point>
      <point x="787" y="639"></point>
      <point x="787" y="657" type="curve" smooth="yes"></point>
      <point x="787" y="745" type="line" smooth="yes"></point>
      <point x="787" y="763"></point>
      <point x="802" y="778"></point>
      <point x="820" y="778" type="curve" smooth="yes"></point>
      <point x="1096" y="778" type="line" smooth="yes"></point>
      <point x="1114" y="778"></point>
      <point x="1129" y="763"></point>
      <point x="1129" y="745" type="curve" smooth="yes"></point>
      <point x="1129" y="657" type="line" smooth="yes"></point>
      <point x="1129" y="639"></point>
      <point x="1114" y="624"></point>
      <point x="1096" y="624" type="curve" smooth="yes"></point>
      <point x="1037" y="624" type="line"></point>
      <point x="879" y="32" type="line" smooth="yes"></point>
      <point x="874" y="13"></point>
      <point x="856" y="0"></point>
      <point x="837" y="0" type="curve" smooth="yes"></point>
      <point x="639" y="0" type="line" smooth="yes"></point>
      <point x="620" y="0"></point>
      <point x="602" y="13"></point>
      <point x="597" y="32" type="curve" smooth="yes"></point>
      <point x="511" y="345" type="line"></point>
      <point x="422" y="32" type="line" smooth="yes"></point>
      <point x="417" y="13"></point>
      <point x="398" y="0"></point>
    </contour>
  </outline>
</glyph>
<glyph name="X" format="1">
  <advance width="912"></advance>
  <unicode hex="0058"></unicode>
  <outline>
    <contour>
      <point x="350" y="0" type="curve" smooth="yes"></point>
      <point x="15" y="0" type="line" smooth="yes"></point>
      <point x="-2" y="0"></point>
      <point x="-17" y="15"></point>
      <point x="-17" y="33" type="curve" smooth="yes"></point>
      <point x="-17" y="117" type="line" smooth="yes"></point>
      <point x="-17" y="135"></point>
      <point x="-2" y="150"></point>
      <point x="15" y="150" type="curve" smooth="yes"></point>
      <point x="104" y="150" type="line"></point>
      <point x="330" y="379" type="line"></point>
      <point x="89" y="624" type="line"></point>
      <point x="0" y="624" type="line" smooth="yes"></point>
      <point x="-17" y="624"></point>
      <point x="-32" y="639"></point>
      <point x="-32" y="657" type="curve" smooth="yes"></point>
      <point x="-32" y="745" type="line" smooth="yes"></point>
      <point x="-32" y="763"></point>
      <point x="-17" y="778"></point>
      <point x="0" y="778" type="curve" smooth="yes"></point>
      <point x="446" y="778" type="line" smooth="yes"></point>
      <point x="464" y="778"></point>
      <point x="479" y="763"></point>
      <point x="479" y="745" type="curve" smooth="yes"></point>
      <point x="479" y="657" type="line" smooth="yes"></point>
      <point x="479" y="639"></point>
      <point x="464" y="624"></point>
      <point x="446" y="624" type="curve" smooth="yes"></point>
      <point x="414" y="624" type="line"></point>
      <point x="528" y="499" type="line"></point>
      <point x="649" y="624" type="line"></point>
      <point x="574" y="624" type="line" smooth="yes"></point>
      <point x="556" y="624"></point>
      <point x="541" y="639"></point>
      <point x="541" y="657" type="curve" smooth="yes"></point>
      <point x="541" y="745" type="line" smooth="yes"></point>
      <point x="541" y="763"></point>
      <point x="556" y="778"></point>
      <point x="574" y="778" type="curve" smooth="yes"></point>
      <point x="887" y="778" type="line" smooth="yes"></point>
      <point x="905" y="778"></point>
      <point x="920" y="763"></point>
      <point x="920" y="745" type="curve" smooth="yes"></point>
      <point x="920" y="657" type="line" smooth="yes"></point>
      <point x="920" y="639"></point>
      <point x="905" y="624"></point>
      <point x="887" y="624" type="curve" smooth="yes"></point>
      <point x="809" y="624" type="line"></point>
      <point x="606" y="416" type="line"></point>
      <point x="854" y="150" type="line"></point>
      <point x="909" y="150" type="line" smooth="yes"></point>
      <point x="927" y="150"></point>
      <point x="942" y="135"></point>
      <point x="942" y="117" type="curve" smooth="yes"></point>
      <point x="942" y="33" type="line" smooth="yes"></point>
      <point x="942" y="15"></point>
      <point x="927" y="0"></point>
      <point x="909" y="0" type="curve" smooth="yes"></point>
      <point x="490" y="0" type="line" smooth="yes"></point>
      <point x="472" y="0"></point>
      <point x="456" y="15"></point>
      <point x="456" y="33" type="curve" smooth="yes"></point>
      <point x="456" y="117" type="line" smooth="yes"></point>
      <point x="456" y="135"></point>
      <point x="471" y="150"></point>
      <point x="489" y="150" type="curve" smooth="yes"></point>
      <point x="536" y="150" type="line"></point>
      <point x="413" y="291" type="line"></point>
      <point x="271" y="150" type="line"></point>
      <point x="350" y="150" type="line" smooth="yes"></point>
      <point x="368" y="150"></point>
      <point x="383" y="135"></point>
      <point x="383" y="117" type="curve" smooth="yes"></point>
      <point x="383" y="33" type="line" smooth="yes"></point>
      <point x="383" y="15"></point>
      <point x="368" y="0"></point>
    </contour>
  </outline>
</glyph>
<glyph name="Y" format="1">
  <advance width="704"></advance>
  <unicode hex="0059"></unicode>
  <outline>
    <contour>
      <point x="562" y="0" type="curve" smooth="yes"></point>
      <point x="169" y="0" type="line" smooth="yes"></point>
      <point x="151" y="0"></point>
      <point x="136" y="15"></point>
      <point x="136" y="33" type="curve" smooth="yes"></point>
      <point x="136" y="117" type="line" smooth="yes"></point>
      <point x="136" y="135"></point>
      <point x="151" y="150"></point>
      <point x="169" y="150" type="curve" smooth="yes"></point>
      <point x="231" y="150" type="line"></point>
      <point x="231" y="318" type="line"></point>
      <point x="26" y="623" type="line"></point>
      <point x="-28" y="623" type="line" smooth="yes"></point>
      <point x="-46" y="623"></point>
      <point x="-61" y="638"></point>
      <point x="-61" y="656" type="curve" smooth="yes"></point>
      <point x="-61" y="744" type="line" smooth="yes"></point>
      <point x="-61" y="762"></point>
      <point x="-46" y="777"></point>
      <point x="-28" y="777" type="curve" smooth="yes"></point>
      <point x="353" y="777" type="line" smooth="yes"></point>
      <point x="371" y="777"></point>
      <point x="387" y="762"></point>
      <point x="387" y="744" type="curve" smooth="yes"></point>
      <point x="387" y="656" type="line" smooth="yes"></point>
      <point x="387" y="638"></point>
      <point x="372" y="623"></point>
      <point x="354" y="623" type="curve" smooth="yes"></point>
      <point x="313" y="623" type="line"></point>
      <point x="424" y="448" type="line"></point>
      <point x="535" y="623" type="line"></point>
      <point x="484" y="623" type="line" smooth="yes"></point>
      <point x="466" y="623"></point>
      <point x="451" y="638"></point>
      <point x="451" y="656" type="curve" smooth="yes"></point>
      <point x="451" y="744" type="line" smooth="yes"></point>
      <point x="451" y="762"></point>
      <point x="466" y="777"></point>
      <point x="484" y="777" type="curve" smooth="yes"></point>
      <point x="729" y="777" type="line" smooth="yes"></point>
      <point x="747" y="777"></point>
      <point x="762" y="762"></point>
      <point x="762" y="744" type="curve" smooth="yes"></point>
      <point x="762" y="656" type="line" smooth="yes"></point>
      <point x="762" y="638"></point>
      <point x="747" y="623"></point>
      <point x="729" y="623" type="curve" smooth="yes"></point>
      <point x="674" y="623" type="line"></point>
      <point x="503" y="344" type="line"></point>
      <point x="503" y="150" type="line"></point>
      <point x="562" y="150" type="line" smooth="yes"></point>
      <point x="580" y="150"></point>
      <point x="595" y="135"></point>
      <point x="595" y="117" type="curve" smooth="yes"></point>
      <point x="595" y="33" type="line" smooth="yes"></point>
      <point x="595" y="15"></point>
      <point x="580" y="0"></point>
    </contour>
  </outline>
</glyph>
<glyph name="Z" format="1">
  <advance width="784"></advance>
  <unicode hex="005A"></unicode>
  <outline>
    <contour>
      <point x="687" y="0" type="curve" smooth="yes"></point>
      <point x="80" y="0" type="line" smooth="yes"></point>
      <point x="62" y="0"></point>
      <point x="47" y="15"></point>
      <point x="47" y="33" type="curve" smooth="yes"></point>
      <point x="47" y="138" type="line" smooth="yes"></point>
      <point x="47" y="158"></point>
      <point x="55" y="181"></point>
      <point x="67" y="197" type="curve" smooth="yes"></point>
      <point x="405" y="645" type="line"></point>
      <point x="235" y="645" type="line"></point>
      <point x="193" y="485" type="line" smooth="yes"></point>
      <point x="188" y="466"></point>
      <point x="171" y="453"></point>
      <point x="152" y="453" type="curve" smooth="yes"></point>
      <point x="77" y="453" type="line" smooth="yes"></point>
      <point x="59" y="453"></point>
      <point x="44" y="468"></point>
      <point x="44" y="486" type="curve" smooth="yes"></point>
      <point x="44" y="744" type="line" smooth="yes"></point>
      <point x="44" y="762"></point>
      <point x="59" y="777"></point>
      <point x="77" y="777" type="curve" smooth="yes"></point>
      <point x="671" y="777" type="line" smooth="yes"></point>
      <point x="689" y="777"></point>
      <point x="704" y="762"></point>
      <point x="704" y="744" type="curve" smooth="yes"></point>
      <point x="704" y="650" type="line" smooth="yes"></point>
      <point x="704" y="630"></point>
      <point x="697" y="607"></point>
      <point x="684" y="590" type="curve" smooth="yes"></point>
      <point x="345" y="135" type="line"></point>
      <point x="520" y="135" type="line"></point>
      <point x="573" y="307" type="line" smooth="yes"></point>
      <point x="579" y="326"></point>
      <point x="597" y="339"></point>
      <point x="616" y="339" type="curve" smooth="yes"></point>
      <point x="687" y="339" type="line" smooth="yes"></point>
      <point x="705" y="339"></point>
      <point x="720" y="324"></point>
      <point x="720" y="306" type="curve" smooth="yes"></point>
      <point x="720" y="33" type="line" smooth="yes"></point>
      <point x="720" y="15"></point>
      <point x="705" y="0"></point>
    </contour>
  </outline>
</glyph>
<glyph name="bracketleft" format="1">
  <advance width="560"></advance>
  <unicode hex="005B"></unicode>
  <outline>
    <contour>
      <point x="425" y="0" type="curve" smooth="yes"></point>
      <point x="145" y="0" type="line" smooth="yes"></point>
      <point x="127" y="0"></point>
      <point x="112" y="15"></point>
      <point x="112" y="33" type="curve" smooth="yes"></point>
      <point x="112" y="759" type="line" smooth="yes"></point>
      <point x="112" y="777"></point>
      <point x="127" y="792"></point>
      <point x="145" y="792" type="curve" smooth="yes"></point>
      <point x="427" y="792" type="line" smooth="yes"></point>
      <point x="445" y="792"></point>
      <point x="460" y="777"></point>
      <point x="460" y="759" type="curve" smooth="yes"></point>
      <point x="460" y="679" type="line" smooth="yes"></point>
      <point x="460" y="661"></point>
      <point x="445" y="646"></point>
      <point x="427" y="646" type="curve" smooth="yes"></point>
      <point x="364" y="646" type="line"></point>
      <point x="364" y="152" type="line"></point>
      <point x="425" y="152" type="line" smooth="yes"></point>
      <point x="443" y="152"></point>
      <point x="458" y="137"></point>
      <point x="458" y="119" type="curve" smooth="yes"></point>
      <point x="458" y="33" type="line" smooth="yes"></point>
      <point x="458" y="15"></point>
      <point x="443" y="0"></point>
    </contour>
  </outline>
</glyph>
<glyph name="backslash" format="1">
  <advance width="544"></advance>
  <unicode hex="005C"></unicode>
  <outline>
    <contour>
      <point x="433" y="0" type="curve" smooth="yes"></point>
      <point x="256" y="0" type="line" smooth="yes"></point>
      <point x="237" y="0"></point>
      <point x="220" y="14"></point>
      <point x="216" y="33" type="curve" smooth="yes"></point>
      <point x="63" y="759" type="line" smooth="yes"></point>
      <point x="63" y="761"></point>
      <point x="62" y="763"></point>
      <point x="62" y="765" type="curve" smooth="yes"></point>
      <point x="62" y="779"></point>
      <point x="74" y="792"></point>
      <point x="89" y="792" type="curve" smooth="yes"></point>
      <point x="266" y="792" type="line" smooth="yes"></point>
      <point x="285" y="792"></point>
      <point x="302" y="778"></point>
      <point x="306" y="759" type="curve" smooth="yes"></point>
      <point x="459" y="33" type="line" smooth="yes"></point>
      <point x="459" y="31"></point>
      <point x="460" y="29"></point>
      <point x="460" y="27" type="curve" smooth="yes"></point>
      <point x="460" y="13"></point>
      <point x="448" y="0"></point>
    </contour>
  </outline>
</glyph>
<glyph name="bracketright" format="1">
  <advance width="560"></advance>
  <unicode hex="005D"></unicode>
  <outline>
    <contour>
      <point x="409" y="0" type="curve" smooth="yes"></point>
      <point x="129" y="0" type="line" smooth="yes"></point>
      <point x="111" y="0"></point>
      <point x="96" y="15"></point>
      <point x="96" y="33" type="curve" smooth="yes"></point>
      <point x="96" y="119" type="line" smooth="yes"></point>
      <point x="96" y="137"></point>
      <point x="111" y="152"></point>
      <point x="129" y="152" type="curve" smooth="yes"></point>
      <point x="190" y="152" type="line"></point>
      <point x="190" y="646" type="line"></point>
      <point x="127" y="646" type="line" smooth="yes"></point>
      <point x="109" y="646"></point>
      <point x="94" y="661"></point>
      <point x="94" y="679" type="curve" smooth="yes"></point>
      <point x="94" y="759" type="line" smooth="yes"></point>
      <point x="94" y="777"></point>
      <point x="109" y="792"></point>
      <point x="127" y="792" type="curve" smooth="yes"></point>
      <point x="409" y="792" type="line" smooth="yes"></point>
      <point x="427" y="792"></point>
      <point x="442" y="777"></point>
      <point x="442" y="759" type="curve" smooth="yes"></point>
      <point x="442" y="33" type="line" smooth="yes"></point>
      <point x="442" y="15"></point>
      <point x="427" y="0"></point>
    </contour>
  </outline>
</glyph>
<glyph name="asciicircum" format="1">
  <advance width="768"></advance>
  <unicode hex="005E"></unicode>
  <outline>
    <contour>
      <point x="343" y="444" type="curve" smooth="yes"></point>
      <point x="182" y="444" type="line" smooth="yes"></point>
      <point x="172" y="444"></point>
      <point x="165" y="452"></point>
      <point x="165" y="461" type="curve" smooth="yes"></point>
      <point x="165" y="464"></point>
      <point x="166" y="468"></point>
      <point x="168" y="471" type="curve" smooth="yes"></point>
      <point x="372" y="766" type="line" smooth="yes"></point>
      <point x="384" y="783"></point>
      <point x="404" y="793"></point>
      <point x="424" y="793" type="curve" smooth="yes"></point>
      <point x="538" y="793" type="line" smooth="yes"></point>
      <point x="558" y="793"></point>
      <point x="578" y="783"></point>
      <point x="590" y="766" type="curve" smooth="yes"></point>
      <point x="795" y="471" type="line" smooth="yes"></point>
      <point x="797" y="468"></point>
      <point x="798" y="464"></point>
      <point x="798" y="461" type="curve" smooth="yes"></point>
      <point x="798" y="452"></point>
      <point x="791" y="444"></point>
      <point x="781" y="444" type="curve" smooth="yes"></point>
      <point x="620" y="444" type="line" smooth="yes"></point>
      <point x="600" y="444"></point>
      <point x="580" y="455"></point>
      <point x="569" y="472" type="curve" smooth="yes"></point>
      <point x="481" y="606" type="line"></point>
      <point x="394" y="472" type="line" smooth="yes"></point>
      <point x="383" y="455"></point>
      <point x="363" y="444"></point>
    </contour>
  </outline>
</glyph>
<glyph name="underscore" format="1">
  <advance width="736"></advance>
  <unicode hex="005F"></unicode>
  <outline>
    <contour>
      <point x="714" y="-109" type="curve" smooth="yes"></point>
      <point x="198" y="-109" type="line" smooth="yes"></point>
      <point x="180" y="-109"></point>
      <point x="165" y="-94"></point>
      <point x="165" y="-76" type="curve" smooth="yes"></point>
      <point x="165" y="-33" type="line" smooth="yes"></point>
      <point x="165" y="-15"></point>
      <point x="180" y="0"></point>
      <point x="198" y="0" type="curve" smooth="yes"></point>
      <point x="714" y="0" type="line" smooth="yes"></point>
      <point x="732" y="0"></point>
      <point x="747" y="-15"></point>
      <point x="747" y="-33" type="curve" smooth="yes"></point>
      <point x="747" y="-76" type="line" smooth="yes"></point>
      <point x="747" y="-94"></point>
      <point x="732" y="-109"></point>
    </contour>
  </outline>
</glyph>
<glyph name="grave" format="1">
  <advance width="528"></advance>
  <unicode hex="0060"></unicode>
  <outline>
    <contour>
      <point x="453" y="633" type="curve" smooth="yes"></point>
      <point x="442" y="618" type="line" smooth="yes"></point>
      <point x="435" y="608"></point>
      <point x="423" y="603"></point>
      <point x="411" y="603" type="curve" smooth="yes"></point>
      <point x="405" y="603"></point>
      <point x="399" y="604"></point>
      <point x="393" y="607" type="curve" smooth="yes"></point>
      <point x="180" y="728" type="line" smooth="yes"></point>
      <point x="170" y="734"></point>
      <point x="165" y="743"></point>
      <point x="165" y="754" type="curve" smooth="yes"></point>
      <point x="165" y="760"></point>
      <point x="166" y="766"></point>
      <point x="170" y="771" type="curve" smooth="yes"></point>
      <point x="222" y="846" type="line" smooth="yes"></point>
      <point x="228" y="854"></point>
      <point x="237" y="858"></point>
      <point x="246" y="858" type="curve" smooth="yes"></point>
      <point x="253" y="858"></point>
      <point x="260" y="855"></point>
      <point x="266" y="850" type="curve" smooth="yes"></point>
      <point x="448" y="683" type="line" smooth="yes"></point>
      <point x="456" y="676"></point>
      <point x="460" y="665"></point>
      <point x="460" y="655" type="curve" smooth="yes"></point>
      <point x="460" y="647"></point>
      <point x="458" y="640"></point>
    </contour>
  </outline>
</glyph>
<glyph name="a" format="1">
  <advance width="704"></advance>
  <unicode hex="0061"></unicode>
  <outline>
    <contour>
      <point x="390" y="80" type="line"></point>
      <point x="361" y="23"></point>
      <point x="294" y="-10"></point>
      <point x="233" y="-10" type="curve" smooth="yes"></point>
      <point x="137" y="-10"></point>
      <point x="53" y="50"></point>
      <point x="53" y="150" type="curve" smooth="yes"></point>
      <point x="53" y="258"></point>
      <point x="154" y="308"></point>
      <point x="258" y="308" type="curve" smooth="yes"></point>
      <point x="307" y="308"></point>
      <point x="344" y="301"></point>
      <point x="381" y="289" type="curve"></point>
      <point x="381" y="311" type="line" smooth="yes"></point>
      <point x="381" y="365"></point>
      <point x="331" y="391"></point>
      <point x="259" y="391" type="curve" smooth="yes"></point>
      <point x="215" y="391"></point>
      <point x="168" y="380"></point>
      <point x="125" y="359" type="curve" smooth="yes"></point>
      <point x="115" y="354"></point>
      <point x="107" y="351"></point>
      <point x="100" y="351" type="curve" smooth="yes"></point>
      <point x="90" y="351"></point>
      <point x="84" y="358"></point>
      <point x="84" y="379" type="curve" smooth="yes"></point>
      <point x="84" y="455" type="line" smooth="yes"></point>
      <point x="84" y="473"></point>
      <point x="98" y="492"></point>
      <point x="116" y="497" type="curve" smooth="yes"></point>
      <point x="191" y="519"></point>
      <point x="266" y="526"></point>
      <point x="319" y="526" type="curve" smooth="yes"></point>
      <point x="464" y="526"></point>
      <point x="616" y="493"></point>
      <point x="616" y="341" type="curve" smooth="yes"></point>
      <point x="616" y="140" type="line"></point>
      <point x="655" y="140" type="line" smooth="yes"></point>
      <point x="673" y="140"></point>
      <point x="688" y="125"></point>
      <point x="688" y="107" type="curve" smooth="yes"></point>
      <point x="688" y="33" type="line" smooth="yes"></point>
      <point x="688" y="15"></point>
      <point x="673" y="0"></point>
      <point x="655" y="0" type="curve" smooth="yes"></point>
      <point x="445" y="0" type="line" smooth="yes"></point>
      <point x="426" y="0"></point>
      <point x="408" y="13"></point>
      <point x="403" y="32" type="curve" smooth="yes"></point>
    </contour>
    <contour>
      <point x="332" y="226" type="curve" smooth="yes"></point>
      <point x="296" y="226"></point>
      <point x="272" y="204"></point>
      <point x="272" y="166" type="curve" smooth="yes"></point>
      <point x="272" y="129"></point>
      <point x="297" y="105"></point>
      <point x="327" y="105" type="curve" smooth="yes"></point>
      <point x="344" y="105"></point>
      <point x="363" y="112"></point>
      <point x="381" y="129" type="curve"></point>
      <point x="381" y="215" type="line"></point>
      <point x="363" y="223"></point>
      <point x="347" y="226"></point>
    </contour>
  </outline>
</glyph>
<glyph name="b" format="1">
  <advance width="784"></advance>
  <unicode hex="0062"></unicode>
  <outline>
    <contour>
      <point x="335" y="359" type="curve"></point>
      <point x="335" y="149" type="line"></point>
      <point x="360" y="138"></point>
      <point x="390" y="129"></point>
      <point x="419" y="129" type="curve" smooth="yes"></point>
      <point x="469" y="129"></point>
      <point x="514" y="157"></point>
      <point x="514" y="255" type="curve" smooth="yes"></point>
      <point x="514" y="357"></point>
      <point x="474" y="389"></point>
      <point x="427" y="389" type="curve" smooth="yes"></point>
      <point x="396" y="389"></point>
      <point x="363" y="375"></point>
    </contour>
    <contour>
      <point x="518" y="-9" type="curve"></point>
      <point x="504" y="-9" type="line" smooth="yes"></point>
      <point x="423" y="-9"></point>
      <point x="369" y="25"></point>
      <point x="330" y="60" type="curve"></point>
      <point x="328" y="51"></point>
      <point x="325" y="43"></point>
      <point x="322" y="36" type="curve"></point>
      <point x="319" y="31" type="line"></point>
      <point x="311" y="12"></point>
      <point x="293" y="0"></point>
      <point x="273" y="0" type="curve" smooth="yes"></point>
      <point x="134" y="0" type="line" smooth="yes"></point>
      <point x="116" y="0"></point>
      <point x="101" y="15"></point>
      <point x="101" y="33" type="curve" smooth="yes"></point>
      <point x="101" y="612" type="line"></point>
      <point x="38" y="612" type="line" smooth="yes"></point>
      <point x="20" y="612"></point>
      <point x="5" y="627"></point>
      <point x="5" y="645" type="curve" smooth="yes"></point>
      <point x="5" y="708" type="line" smooth="yes"></point>
      <point x="5" y="726"></point>
      <point x="20" y="743"></point>
      <point x="38" y="744" type="curve" smooth="yes"></point>
      <point x="301" y="762" type="line"></point>
      <point x="303" y="762" type="line" smooth="yes"></point>
      <point x="320" y="762"></point>
      <point x="335" y="749"></point>
      <point x="335" y="732" type="curve" smooth="yes"></point>
      <point x="335" y="452" type="line"></point>
      <point x="379" y="489"></point>
      <point x="444" y="526"></point>
      <point x="519" y="526" type="curve" smooth="yes"></point>
      <point x="525" y="526" type="line"></point>
      <point x="647" y="523"></point>
      <point x="742" y="425"></point>
      <point x="742" y="255" type="curve" smooth="yes"></point>
      <point x="742" y="116"></point>
      <point x="658" y="-2"></point>
    </contour>
  </outline>
</glyph>
<glyph name="c" format="1">
  <advance width="688"></advance>
  <unicode hex="0063"></unicode>
  <outline>
    <contour>
      <point x="552" y="32" type="curve" smooth="yes"></point>
      <point x="522" y="14"></point>
      <point x="467" y="-10"></point>
      <point x="362" y="-10" type="curve" smooth="yes"></point>
      <point x="183" y="-10"></point>
      <point x="65" y="98"></point>
      <point x="65" y="267" type="curve" smooth="yes"></point>
      <point x="65" y="420"></point>
      <point x="164" y="526"></point>
      <point x="318" y="526" type="curve" smooth="yes"></point>
      <point x="431" y="526"></point>
      <point x="458" y="485"></point>
      <point x="475" y="457" type="curve"></point>
      <point x="479" y="485" type="line" smooth="yes"></point>
      <point x="482" y="503"></point>
      <point x="505" y="523"></point>
      <point x="524" y="523" type="curve" smooth="yes"></point>
      <point x="563" y="523" type="line" smooth="yes"></point>
      <point x="581" y="523"></point>
      <point x="596" y="508"></point>
      <point x="596" y="490" type="curve" smooth="yes"></point>
      <point x="596" y="340" type="line" smooth="yes"></point>
      <point x="596" y="322"></point>
      <point x="581" y="307"></point>
      <point x="563" y="307" type="curve" smooth="yes"></point>
      <point x="495" y="307" type="line" smooth="yes"></point>
      <point x="471" y="307"></point>
      <point x="456" y="317"></point>
      <point x="449" y="340" type="curve" smooth="yes"></point>
      <point x="436" y="384"></point>
      <point x="415" y="396"></point>
      <point x="386" y="396" type="curve" smooth="yes"></point>
      <point x="336" y="396"></point>
      <point x="300" y="367"></point>
      <point x="300" y="266" type="curve" smooth="yes"></point>
      <point x="300" y="161"></point>
      <point x="356" y="128"></point>
      <point x="419" y="128" type="curve" smooth="yes"></point>
      <point x="467" y="128"></point>
      <point x="518" y="147"></point>
      <point x="551" y="169" type="curve" smooth="yes"></point>
      <point x="555" y="171"></point>
      <point x="559" y="172"></point>
      <point x="562" y="172" type="curve" smooth="yes"></point>
      <point x="572" y="172"></point>
      <point x="580" y="164"></point>
      <point x="580" y="152" type="curve" smooth="yes"></point>
      <point x="580" y="78" type="line"></point>
      <point x="580" y="72" type="line" smooth="yes"></point>
      <point x="580" y="59"></point>
      <point x="576" y="46"></point>
    </contour>
  </outline>
</glyph>
<glyph name="d" format="1">
  <advance width="768"></advance>
  <unicode hex="0064"></unicode>
  <outline>
    <contour>
      <point x="425" y="380" type="line"></point>
      <point x="409" y="387"></point>
      <point x="391" y="392"></point>
      <point x="368" y="392" type="curve" smooth="yes"></point>
      <point x="363" y="392"></point>
      <point x="358" y="392"></point>
      <point x="352" y="391" type="curve" smooth="yes"></point>
      <point x="301" y="386"></point>
      <point x="251" y="348"></point>
      <point x="251" y="269" type="curve" smooth="yes"></point>
      <point x="251" y="179"></point>
      <point x="298" y="136"></point>
      <point x="352" y="131" type="curve" smooth="yes"></point>
      <point x="356" y="131"></point>
      <point x="361" y="130"></point>
      <point x="365" y="130" type="curve" smooth="yes"></point>
      <point x="388" y="130"></point>
      <point x="408" y="137"></point>
      <point x="425" y="144" type="curve"></point>
    </contour>
    <contour>
      <point x="713" y="0" type="curve" smooth="yes"></point>
      <point x="458" y="0" type="line" smooth="yes"></point>
      <point x="440" y="0"></point>
      <point x="425" y="15"></point>
      <point x="425" y="33" type="curve" smooth="yes"></point>
      <point x="425" y="34" type="line"></point>
      <point x="389" y="11"></point>
      <point x="342" y="-9"></point>
      <point x="272" y="-9" type="curve" smooth="yes"></point>
      <point x="262" y="-9" type="line"></point>
      <point x="140" y="-6"></point>
      <point x="23" y="99"></point>
      <point x="23" y="269" type="curve" smooth="yes"></point>
      <point x="23" y="408"></point>
      <point x="127" y="518"></point>
      <point x="267" y="525" type="curve" smooth="yes"></point>
      <point x="274" y="525"></point>
      <point x="281" y="526"></point>
      <point x="288" y="526" type="curve" smooth="yes"></point>
      <point x="351" y="526"></point>
      <point x="394" y="510"></point>
      <point x="425" y="492" type="curve"></point>
      <point x="425" y="612" type="line"></point>
      <point x="362" y="612" type="line" smooth="yes"></point>
      <point x="344" y="612"></point>
      <point x="329" y="627"></point>
      <point x="329" y="645" type="curve" smooth="yes"></point>
      <point x="329" y="708" type="line" smooth="yes"></point>
      <point x="329" y="726"></point>
      <point x="344" y="742"></point>
      <point x="362" y="744" type="curve" smooth="yes"></point>
      <point x="626" y="762" type="line"></point>
      <point x="627" y="762" type="line" smooth="yes"></point>
      <point x="644" y="762"></point>
      <point x="659" y="749"></point>
      <point x="659" y="732" type="curve" smooth="yes"></point>
      <point x="659" y="140" type="line"></point>
      <point x="713" y="140" type="line" smooth="yes"></point>
      <point x="731" y="140"></point>
      <point x="746" y="125"></point>
      <point x="746" y="107" type="curve" smooth="yes"></point>
      <point x="746" y="33" type="line" smooth="yes"></point>
      <point x="746" y="15"></point>
      <point x="731" y="0"></point>
    </contour>
  </outline>
</glyph>
<glyph name="e" format="1">
  <advance width="640"></advance>
  <unicode hex="0065"></unicode>
  <outline>
    <contour>
      <point x="293" y="313" type="curve"></point>
      <point x="422" y="313" type="line"></point>
      <point x="422" y="323" type="line" smooth="yes"></point>
      <point x="422" y="366"></point>
      <point x="402" y="408"></point>
      <point x="359" y="408" type="curve" smooth="yes"></point>
      <point x="315" y="408"></point>
      <point x="293" y="358"></point>
    </contour>
    <contour>
      <point x="564" y="33" type="curve" smooth="yes"></point>
      <point x="514" y="7"></point>
      <point x="455" y="-10"></point>
      <point x="359" y="-10" type="curve" smooth="yes"></point>
      <point x="176" y="-10"></point>
      <point x="62" y="98"></point>
      <point x="62" y="265" type="curve" smooth="yes"></point>
      <point x="62" y="431"></point>
      <point x="172" y="526"></point>
      <point x="343" y="526" type="curve" smooth="yes"></point>
      <point x="502" y="526"></point>
      <point x="609" y="435"></point>
      <point x="609" y="281" type="curve" smooth="yes"></point>
      <point x="609" y="273"></point>
      <point x="607" y="263"></point>
      <point x="606" y="255" type="curve" smooth="yes"></point>
      <point x="604" y="243"></point>
      <point x="591" y="231"></point>
      <point x="578" y="231" type="curve" smooth="yes"></point>
      <point x="293" y="231" type="line"></point>
      <point x="293" y="167"></point>
      <point x="353" y="130"></point>
      <point x="415" y="130" type="curve" smooth="yes"></point>
      <point x="455" y="130"></point>
      <point x="506" y="140"></point>
      <point x="560" y="166" type="curve" smooth="yes"></point>
      <point x="563" y="168"></point>
      <point x="567" y="169"></point>
      <point x="570" y="169" type="curve" smooth="yes"></point>
      <point x="581" y="169"></point>
      <point x="590" y="160"></point>
      <point x="590" y="147" type="curve" smooth="yes"></point>
      <point x="592" y="81" type="line" smooth="yes"></point>
      <point x="592" y="62"></point>
      <point x="581" y="42"></point>
    </contour>
  </outline>
</glyph>
<glyph name="f" format="1">
  <advance width="624"></advance>
  <unicode hex="0066"></unicode>
  <outline>
    <contour>
      <point x="499" y="0" type="curve" smooth="yes"></point>
      <point x="112" y="0" type="line" smooth="yes"></point>
      <point x="94" y="0"></point>
      <point x="79" y="15"></point>
      <point x="79" y="33" type="curve" smooth="yes"></point>
      <point x="79" y="107" type="line" smooth="yes"></point>
      <point x="79" y="125"></point>
      <point x="94" y="140"></point>
      <point x="112" y="140" type="curve" smooth="yes"></point>
      <point x="180" y="140" type="line"></point>
      <point x="180" y="362" type="line"></point>
      <point x="112" y="362" type="line" smooth="yes"></point>
      <point x="94" y="362"></point>
      <point x="79" y="377"></point>
      <point x="79" y="395" type="curve" smooth="yes"></point>
      <point x="79" y="469" type="line" smooth="yes"></point>
      <point x="79" y="487"></point>
      <point x="94" y="502"></point>
      <point x="112" y="502" type="curve" smooth="yes"></point>
      <point x="180" y="502" type="line"></point>
      <point x="180" y="577" type="line" smooth="yes"></point>
      <point x="180" y="720"></point>
      <point x="273" y="780"></point>
      <point x="383" y="780" type="curve" smooth="yes"></point>
      <point x="419" y="780"></point>
      <point x="463" y="773"></point>
      <point x="503" y="761" type="curve" smooth="yes"></point>
      <point x="520" y="756"></point>
      <point x="534" y="737"></point>
      <point x="534" y="719" type="curve" smooth="yes"></point>
      <point x="534" y="644" type="line" smooth="yes"></point>
      <point x="534" y="631"></point>
      <point x="525" y="622"></point>
      <point x="513" y="622" type="curve" smooth="yes"></point>
      <point x="510" y="622" type="line"></point>
      <point x="501" y="623"></point>
      <point x="491" y="624"></point>
      <point x="483" y="624" type="curve" smooth="yes"></point>
      <point x="442" y="624"></point>
      <point x="414" y="606"></point>
      <point x="414" y="547" type="curve" smooth="yes"></point>
      <point x="414" y="502" type="line"></point>
      <point x="508" y="502" type="line" smooth="yes"></point>
      <point x="526" y="502"></point>
      <point x="541" y="487"></point>
      <point x="541" y="469" type="curve" smooth="yes"></point>
      <point x="541" y="395" type="line" smooth="yes"></point>
      <point x="541" y="377"></point>
      <point x="526" y="362"></point>
      <point x="508" y="362" type="curve" smooth="yes"></point>
      <point x="414" y="362" type="line"></point>
      <point x="414" y="140" type="line"></point>
      <point x="499" y="140" type="line" smooth="yes"></point>
      <point x="517" y="140"></point>
      <point x="532" y="125"></point>
      <point x="532" y="107" type="curve" smooth="yes"></point>
      <point x="532" y="33" type="line" smooth="yes"></point>
      <point x="532" y="15"></point>
      <point x="517" y="0"></point>
    </contour>
  </outline>
</glyph>
<glyph name="g" format="1">
  <advance width="768"></advance>
  <unicode hex="0067"></unicode>
  <outline>
    <contour>
      <point x="262" y="261" type="curve" smooth="yes"></point>
      <point x="262" y="186"></point>
      <point x="292" y="134"></point>
      <point x="354" y="134" type="curve" smooth="yes"></point>
      <point x="387" y="134"></point>
      <point x="410" y="150"></point>
      <point x="419" y="166" type="curve"></point>
      <point x="419" y="338" type="line"></point>
      <point x="408" y="359"></point>
      <point x="384" y="374"></point>
      <point x="350" y="374" type="curve" smooth="yes"></point>
      <point x="297" y="374"></point>
      <point x="262" y="341"></point>
    </contour>
    <contour>
      <point x="653" y="60" type="line" smooth="yes"></point>
      <point x="653" y="-116"></point>
      <point x="516" y="-196"></point>
      <point x="327" y="-196" type="curve" smooth="yes"></point>
      <point x="269" y="-196"></point>
      <point x="205" y="-189"></point>
      <point x="139" y="-174" type="curve" smooth="yes"></point>
      <point x="121" y="-170"></point>
      <point x="107" y="-152"></point>
      <point x="107" y="-133" type="curve" smooth="yes"></point>
      <point x="107" y="-58" type="line" smooth="yes"></point>
      <point x="107" y="-45"></point>
      <point x="119" y="-34"></point>
      <point x="132" y="-34" type="curve" smooth="yes"></point>
      <point x="134" y="-34"></point>
      <point x="136" y="-34"></point>
      <point x="139" y="-35" type="curve" smooth="yes"></point>
      <point x="187" y="-50"></point>
      <point x="247" y="-66"></point>
      <point x="298" y="-66" type="curve" smooth="yes"></point>
      <point x="363" y="-66"></point>
      <point x="416" y="-33"></point>
      <point x="416" y="57" type="curve"></point>
      <point x="389" y="33"></point>
      <point x="344" y="16"></point>
      <point x="285" y="16" type="curve" smooth="yes"></point>
      <point x="279" y="16"></point>
      <point x="272" y="17"></point>
      <point x="265" y="17" type="curve" smooth="yes"></point>
      <point x="118" y="26"></point>
      <point x="44" y="123"></point>
      <point x="44" y="264" type="curve" smooth="yes"></point>
      <point x="44" y="410"></point>
      <point x="117" y="526"></point>
      <point x="262" y="526" type="curve" smooth="yes"></point>
      <point x="339" y="526"></point>
      <point x="401" y="475"></point>
      <point x="429" y="435" type="curve"></point>
      <point x="450" y="478" type="line" smooth="yes"></point>
      <point x="463" y="505"></point>
      <point x="474" y="513"></point>
      <point x="498" y="513" type="curve" smooth="yes"></point>
      <point x="507" y="513" type="line"></point>
      <point x="689" y="502" type="line" smooth="yes"></point>
      <point x="707" y="501"></point>
      <point x="722" y="487"></point>
      <point x="722" y="469" type="curve" smooth="yes"></point>
      <point x="722" y="395" type="line" smooth="yes"></point>
      <point x="722" y="377"></point>
      <point x="707" y="362"></point>
      <point x="689" y="362" type="curve" smooth="yes"></point>
      <point x="653" y="362" type="line"></point>
    </contour>
  </outline>
</glyph>
<glyph name="h" format="1">
  <advance width="784"></advance>
  <unicode hex="0068"></unicode>
  <outline>
    <contour>
      <point x="402" y="386" type="curve" smooth="yes"></point>
      <point x="354" y="386"></point>
      <point x="348" y="326"></point>
      <point x="347" y="268" type="curve"></point>
      <point x="347" y="266" type="line"></point>
      <point x="347" y="33" type="line" smooth="yes"></point>
      <point x="347" y="15"></point>
      <point x="332" y="0"></point>
      <point x="314" y="0" type="curve" smooth="yes"></point>
      <point x="44" y="0" type="line" smooth="yes"></point>
      <point x="26" y="0"></point>
      <point x="11" y="15"></point>
      <point x="11" y="33" type="curve" smooth="yes"></point>
      <point x="11" y="107" type="line" smooth="yes"></point>
      <point x="11" y="125"></point>
      <point x="26" y="140"></point>
      <point x="44" y="140" type="curve" smooth="yes"></point>
      <point x="113" y="140" type="line"></point>
      <point x="113" y="612" type="line"></point>
      <point x="50" y="612" type="line" smooth="yes"></point>
      <point x="32" y="612"></point>
      <point x="17" y="627"></point>
      <point x="17" y="645" type="curve" smooth="yes"></point>
      <point x="17" y="708" type="line" smooth="yes"></point>
      <point x="17" y="726"></point>
      <point x="32" y="742"></point>
      <point x="50" y="744" type="curve" smooth="yes"></point>
      <point x="314" y="762" type="line"></point>
      <point x="315" y="762" type="line" smooth="yes"></point>
      <point x="332" y="762"></point>
      <point x="347" y="749"></point>
      <point x="347" y="732" type="curve" smooth="yes"></point>
      <point x="347" y="424" type="line"></point>
      <point x="394" y="510"></point>
      <point x="469" y="526"></point>
      <point x="523" y="526" type="curve" smooth="yes"></point>
      <point x="623" y="526"></point>
      <point x="682" y="466"></point>
      <point x="682" y="332" type="curve" smooth="yes"></point>
      <point x="682" y="140" type="line"></point>
      <point x="743" y="140" type="line" smooth="yes"></point>
      <point x="761" y="140"></point>
      <point x="776" y="125"></point>
      <point x="776" y="107" type="curve" smooth="yes"></point>
      <point x="776" y="33" type="line" smooth="yes"></point>
      <point x="776" y="15"></point>
      <point x="761" y="0"></point>
      <point x="743" y="0" type="curve" smooth="yes"></point>
      <point x="481" y="0" type="line" smooth="yes"></point>
      <point x="463" y="0"></point>
      <point x="448" y="15"></point>
      <point x="448" y="33" type="curve" smooth="yes"></point>
      <point x="448" y="333" type="line" smooth="yes"></point>
      <point x="448" y="361"></point>
      <point x="428" y="386"></point>
    </contour>
  </outline>
</glyph>
<glyph name="i" format="1">
  <advance width="576"></advance>
  <unicode hex="0069"></unicode>
  <outline>
    <contour>
      <point x="475" y="0" type="curve" smooth="yes"></point>
      <point x="118" y="0" type="line" smooth="yes"></point>
      <point x="100" y="0"></point>
      <point x="85" y="15"></point>
      <point x="85" y="33" type="curve" smooth="yes"></point>
      <point x="85" y="107" type="line" smooth="yes"></point>
      <point x="85" y="125"></point>
      <point x="100" y="140"></point>
      <point x="118" y="140" type="curve" smooth="yes"></point>
      <point x="187" y="140" type="line"></point>
      <point x="187" y="369" type="line"></point>
      <point x="124" y="369" type="line" smooth="yes"></point>
      <point x="106" y="369"></point>
      <point x="91" y="384"></point>
      <point x="91" y="402" type="curve" smooth="yes"></point>
      <point x="91" y="466" type="line" smooth="yes"></point>
      <point x="91" y="484"></point>
      <point x="106" y="501"></point>
      <point x="124" y="502" type="curve" smooth="yes"></point>
      <point x="389" y="520" type="line"></point>
      <point x="390" y="520" type="line" smooth="yes"></point>
      <point x="407" y="520"></point>
      <point x="421" y="507"></point>
      <point x="421" y="490" type="curve" smooth="yes"></point>
      <point x="421" y="140" type="line"></point>
      <point x="475" y="140" type="line" smooth="yes"></point>
      <point x="493" y="140"></point>
      <point x="508" y="125"></point>
      <point x="508" y="107" type="curve" smooth="yes"></point>
      <point x="508" y="33" type="line" smooth="yes"></point>
      <point x="508" y="15"></point>
      <point x="493" y="0"></point>
    </contour>
    <contour>
      <point x="421" y="686" type="curve" smooth="yes"></point>
      <point x="421" y="610"></point>
      <point x="358" y="574"></point>
      <point x="281" y="574" type="curve" smooth="yes"></point>
      <point x="205" y="574"></point>
      <point x="140" y="610"></point>
      <point x="140" y="686" type="curve" smooth="yes"></point>
      <point x="140" y="762"></point>
      <point x="204" y="796"></point>
      <point x="281" y="796" type="curve" smooth="yes"></point>
      <point x="360" y="796"></point>
      <point x="421" y="763"></point>
    </contour>
  </outline>
</glyph>
